<?xml version="1.0" encoding="UTF-8" standalone="no"?>
<svg
   width="700"
   height="175"
   viewBox="0 0 700 175"
   version="1.1"
   id="svg10"
   sodipodi:docname="bugfender_logo.svg"
   inkscape:version="1.3.2 (091e20e, 2023-11-25)"
   inkscape:export-filename="bugfender_logo.png"
   inkscape:export-xdpi="100.34846"
   inkscape:export-ydpi="100.34846"
   xmlns:inkscape="http://www.inkscape.org/namespaces/inkscape"
   xmlns:sodipodi="http://sodipodi.sourceforge.net/DTD/sodipodi-0.dtd"
   xmlns="http://www.w3.org/2000/svg"
   xmlns:svg="http://www.w3.org/2000/svg">
  <defs
     id="defs14" />
  <sodipodi:namedview
     id="namedview12"
     pagecolor="#ffffff"
     bordercolor="#cccccc"
     borderopacity="1"
     inkscape:showpageshadow="0"
     inkscape:pageopacity="0"
     inkscape:pagecheckerboard="true"
     inkscape:deskcolor="#d1d1d1"
     showgrid="false"
     inkscape:zoom="1"
     inkscape:cx="371.5"
     inkscape:cy="261"
     inkscape:window-width="1920"
     inkscape:window-height="1147"
     inkscape:window-x="0"
     inkscape:window-y="25"
     inkscape:window-maximized="0"
     inkscape:current-layer="svg10" />
  <g
     fill="#315f9b"
     fill-rule="evenodd"
     id="g8"
     transform="matrix(2.8178138,0,0,2.8178138,2.6229238,1.03814)"
     inkscape:label="g8">
    <path
       fill-opacity="0.1"
       d="M 24.91954,4.8841954 V 57.844195 c 0,0 -6.07,-2.05 -8.72,-3.9 a 30.59,30.59 0 0 1 -6.9599998,-6.66 32,32 0 0 1 -4.55,-8.6 29.22,29.22 0 0 1 -1.66,-9.74 v -14.46 z"
       id="path2" />
    <path
       d="m 24.86954,5.2541954 -0.05,-0.02 v 0.05 L 3.8095402,14.634195 v 14.15 c 0,3.28 0.54,6.46 1.62,9.54 a 31.3,31.3 0 0 0 4.48,8.43 30.02,30.02 0 0 0 6.8399998,6.52 c 2.4,1.66 7.31,3.5 8.07,3.78 v 0.03 l 0.05,-0.01 0.04,0.01 v -0.03 c 0.76,-0.28 5.66,-2.12 8.07,-3.78 2.62,-1.8 4.9,-3.98 6.84,-6.52 a 31.3,31.3 0 0 0 4.48,-8.43 28.52,28.52 0 0 0 1.62,-9.54 v -14.15 l -21,-9.3499996 v -0.05 z m 0.14,-2.75 0.06,-0.02 v 0.05 l 23.54,10.2799996 v 15.56 c 0,3.6 -0.6,7.1 -1.79,10.48 a 34.41,34.41 0 0 1 -4.92,9.27 33,33 0 0 1 -7.52,7.17 c -2.65,1.83 -8.45,3.86 -9.31,4.15 v 0.04 l -0.06,-0.02 -0.05,0.02 v -0.04 c -0.86,-0.3 -6.66,-2.32 -9.31,-4.15 a 33,33 0 0 1 -7.5199998,-7.17 34.41,34.41 0 0 1 -4.92,-9.27 31.35,31.35 0 0 1 -1.79,-10.48 v -15.56 L 24.95954,2.5341954 v -0.05 z"
       id="path4" />
    <path
       d="m 35.78954,25.654195 v 2.63 h -2.84 c 0.09,0.59 0.13,1.05 0.13,1.38 v 1.32 h 2.71 v 2.7 h -2.7 v 1.31 c 0,0.3 -0.05,0.74 -0.14,1.32 h 2.84 v 2.7 h -3.78 a 8.14,8.14 0 0 1 -7,4.01 8.14,8.14 0 0 1 -7,-4.01 h -3.77 v -2.7 h 2.83 c -0.08,-0.58 -0.12,-1.02 -0.12,-1.32 v -1.31 h -2.71 v -2.7 h 2.7 v -1.32 c 0,-0.33 0.05,-0.8 0.13,-1.38 h -2.83 v -2.63 h 3.78 a 8.67,8.67 0 0 1 2.46,-2.64 v -4.07 h 2.64 v 2.88 a 9.66,9.66 0 0 1 3.78,0 v -2.88 h 2.65 v 4.07 c 1.01,0.72 1.83,1.6 2.46,2.64 z m 33.24,16.71 v -22.76 h 7.95 c 2.62,0 4.61,0.52 5.98,1.55 1.37,1.03 2.06,2.57 2.06,4.6 0,1.05 -0.29,1.99 -0.86,2.82 a 5.52,5.52 0 0 1 -2.52,1.94 c 1.25,0.33 2.22,0.96 2.9,1.88 a 5.42,5.42 0 0 1 1.03,3.33 c 0,2.13 -0.7,3.77 -2.09,4.92 -1.4,1.15 -3.4,1.72 -6,1.72 z m 4.03,-10.27 v 7.11 h 4.47 c 1.27,0 2.25,-0.3 2.97,-0.92 a 3.2,3.2 0 0 0 1.06,-2.56 c 0,-2.37 -1.23,-3.58 -3.7,-3.63 z m 0,-2.9 v -6.4 h 3.92 c 1.38,0 2.4,0.25 3.05,0.75 0.65,0.5 0.97,1.31 0.97,2.44 0,1.02 -0.35,1.8 -1.05,2.37 -0.7,0.55 -1.69,0.83 -2.94,0.83 h -3.95 z m 32.83,-9.59 v 15.21 c 0,2.42 -0.79,4.33 -2.36,5.74 -1.58,1.42 -3.68,2.12 -6.3,2.12 -2.65,0 -4.76,-0.7 -6.32,-2.08 -1.56,-1.4 -2.34,-3.33 -2.34,-5.8 v -15.19 h 4.01 v 15.23 c 0,1.52 0.4,2.68 1.18,3.48 0.78,0.8 1.94,1.2 3.47,1.2 3.1,0 4.65,-1.6 4.65,-4.81 v -15.1 h 4 z m 21.37,19.8 a 7.7,7.7 0 0 1 -3.48,2.44 c -1.49,0.56 -3.18,0.83 -5.06,0.83 -1.95,0 -3.67,-0.43 -5.16,-1.3 a 8.7,8.7 0 0 1 -3.46,-3.7 12.8,12.8 0 0 1 -1.27,-5.64 v -1.78 c 0,-3.44 0.84,-6.13 2.52,-8.06 1.67,-1.94 4.01,-2.9 7.02,-2.9 2.57,0 4.62,0.62 6.14,1.87 1.52,1.25 2.43,3.06 2.74,5.41 h -3.95 c -0.45,-2.74 -2.06,-4.1 -4.85,-4.1 -1.8,0 -3.18,0.63 -4.12,1.9 -0.94,1.28 -1.42,3.16 -1.46,5.63 v 1.75 c 0,2.46 0.53,4.36 1.59,5.72 a 5.26,5.26 0 0 0 4.4,2.04 c 2.06,0 3.52,-0.45 4.4,-1.37 v -4.46 h -4.78 v -3 h 8.78 v 8.73 z m 17.2,-6.68 h -9.34 v 9.64 h -4.02 v -22.76 h 14.72 v 3.19 h -10.7 v 6.77 h 9.33 v 3.16 z m 18.06,-0.52 h -9.52 v 7 h 11.13 v 3.16 h -15.16 v -22.76 h 15.05 v 3.19 h -11.02 v 6.28 h 9.52 z m 23.25,10.16 h -4.02 l -10.34,-16.15 v 16.15 h -4.02 v -22.76 h 4.02 l 10.37,16.21 v -16.21 h 4 v 22.76 z m 3.57,0 v -22.76 h 6.85 c 2.05,0 3.86,0.45 5.45,1.34 a 9.24,9.24 0 0 1 3.68,3.82 c 0.87,1.65 1.31,3.53 1.31,5.66 v 1.14 c 0,2.16 -0.44,4.05 -1.31,5.69 a 9.13,9.13 0 0 1 -3.74,3.78 11.4,11.4 0 0 1 -5.57,1.33 z m 4.03,-19.57 v 16.41 h 2.63 c 2.1,0 3.73,-0.65 4.86,-1.94 1.13,-1.3 1.7,-3.16 1.73,-5.6 v -1.26 c 0,-2.47 -0.55,-4.35 -1.64,-5.66 -1.1,-1.3 -2.68,-1.95 -4.76,-1.95 z m 29.62,9.4 h -9.52 v 7.01 h 11.13 v 3.16 h -15.16 v -22.76 h 15.04 v 3.19 h -11.01 v 6.28 h 9.52 v 3.13 z m 13.47,1.4 h -4.5 v 8.77 h -4.02 v -22.76 h 8.15 c 2.68,0 4.74,0.59 6.2,1.77 1.45,1.17 2.17,2.88 2.17,5.1 0,1.53 -0.37,2.8 -1.12,3.83 a 7.12,7.12 0 0 1 -3.13,2.37 l 5.21,9.49 v 0.2 h -4.31 z m -4.5,-3.17 h 4.15 c 1.36,0 2.42,-0.34 3.18,-1.01 a 3.49,3.49 0 0 0 1.15,-2.76 3.7,3.7 0 0 0 -1.06,-2.83 c -0.7,-0.67 -1.76,-1.01 -3.16,-1.03 h -4.25 v 7.63 z"
       id="path6" />
  </g>
</svg>
