<?xml version="1.0" encoding="UTF-8"?>
<svg xmlns="http://www.w3.org/2000/svg" xmlns:xlink="http://www.w3.org/1999/xlink" version="1.1" viewBox="0 0 4800 2153.3">
  <defs>
    <style>
      .cls-1 {
        fill: none;
      }

      .cls-2 {
        fill: url(#linear-gradient-3);
      }

      .cls-3 {
        fill: url(#linear-gradient-2);
      }

      .cls-4 {
        fill: url(#linear-gradient);
      }

      .cls-5 {
        fill: #3e485b;
      }

      .cls-6 {
        fill: #1476fb;
      }

      .cls-7 {
        clip-path: url(#clippath);
      }
    </style>
    <clipPath id="clippath">
      <rect class="cls-1" width="4800" height="2153.3"/>
    </clipPath>
    <linearGradient id="linear-gradient" x1="1451.535" y1="803.041" x2="1461.435" y2="803.041" gradientTransform="translate(-87246.959 18841.426) scale(61.906 -22.639)" gradientUnits="userSpaceOnUse">
      <stop offset="0" stop-color="#a2cf70"/>
      <stop offset=".5" stop-color="#5da1b3"/>
      <stop offset=".774" stop-color="#2f84df"/>
      <stop offset="1" stop-color="#1476f9"/>
    </linearGradient>
    <linearGradient id="linear-gradient-2" x1="1451.054" y1="857.322" x2="1460.862" y2="857.322" gradientTransform="translate(-23543.528 -66829.303) rotate(85.125) scale(52.452 -24.401) skewX(-8.464)" gradientUnits="userSpaceOnUse">
      <stop offset="0" stop-color="#ffd222"/>
      <stop offset=".017" stop-color="#ffd222"/>
      <stop offset=".152" stop-color="#ddc137"/>
      <stop offset=".561" stop-color="#7b897e"/>
      <stop offset=".902" stop-color="#2379e6"/>
      <stop offset="1" stop-color="#1476f9"/>
    </linearGradient>
    <linearGradient id="linear-gradient-3" x1="1453.331" y1="808.768" x2="1463.227" y2="808.768" gradientTransform="translate(-101521.579 -3047.28) rotate(22.53) scale(57.347 -44.903) skewX(17.144)" gradientUnits="userSpaceOnUse">
      <stop offset="0" stop-color="#f94b38"/>
      <stop offset=".065" stop-color="#f94b38"/>
      <stop offset=".5" stop-color="#7e6982"/>
      <stop offset=".953" stop-color="#1476f9"/>
      <stop offset="1" stop-color="#1476f9"/>
    </linearGradient>
  </defs>
  <!-- Generator: Adobe Illustrator 28.7.1, SVG Export Plug-In . SVG Version: 1.2.0 Build 142)  -->
  <g>
    <g id="Layer_1">
      <g id="Layer_1-2" data-name="Layer_1">
        <g id="Layer_1-2">
          <g id="Layer_1-2-2" data-name="Layer_1-2">
            <g class="cls-7">
              <g>
                <g>
                  <g>
                    <path class="cls-5" d="M776.9,1365.8h-18.6c-4.5,0-8.2,3.7-8.2,8.2v28c-32.1-42.4-101.9-50.3-147.2-23.9-38.1,21.9-56.8,62.9-56.5,108.1-.3,45.3,18.4,86.6,56.5,108.7,45.3,26.9,115.1,18.5,147.2-24.2v28.1c0,4.5,3.7,8.2,8.2,8.2h18.6c4.5,0,8.2-3.7,8.2-8.2v-224.8c0-4.5-3.7-8.2-8.2-8.2h0ZM665.5,1577.4c-73.9,3-101.7-82.9-73-140.4,27.2-56.5,118.9-54.7,146.4,1.2,30.5,57.4-1.3,141.5-73.3,139.2h-.1Z"/>
                    <path class="cls-5" d="M1198.2,1284.2h-18.6c-4.5,0-8.2,3.7-8.2,8.2v109.8c-32.6-42.5-101.8-50.7-147.2-24.2-38.1,21.9-56.8,62.9-56.5,108.1-.3,45.3,18.4,86.6,56.5,108.7,45.3,26.8,115.4,18.7,147.2-24.2v28.1c0,4.5,3.7,8.2,8.2,8.2h18.6c4.5,0,8.2-3.7,8.2-8.2v-306.4c0-4.5-3.7-8.2-8.2-8.2h0v.1ZM1086.8,1577.4c-73.9,3-101.7-82.9-73-140.4,27.2-56.5,118.9-54.7,146.4,1.2,30.5,57.4-1.3,141.5-73.3,139.2h-.1Z"/>
                    <path class="cls-5" d="M1602.9,1365.8h-19.9c-3.3,0-6.3,2-7.6,5.1l-75.2,185.8-75.2-185.8c-1.3-3.1-4.3-5.1-7.6-5.1h-20.3c-5.6,0-9.9,6.2-7.6,11.3l93.2,224.8c1.3,3.1,4.3,5.1,7.6,5.1h19.5c3.3,0,6.3-2,7.6-5.1l93.2-224.8c2.3-5.2-1.9-11.5-7.6-11.3h-.1Z"/>
                    <path class="cls-5" d="M2317.9,1361.2c-31.8.4-55.7,7.6-75,28.4-.8-7.9,3.7-23.3-8.2-23.8h-18.6c-4.5,0-8.2,3.7-8.2,8.2v224.8c0,4.5,3.7,8.2,8.2,8.2h18.6c4.5,0,8.2-3.7,8.2-8.2v-129.6c-.9-48.2,25.1-71.5,68.8-72.1,6.4.4,14.1,0,14.4-8.2v-19.5c0-4.5-3.7-8.2-8.2-8.2h0Z"/>
                    <path class="cls-5" d="M2636.1,1365.8h-58.5v-48.9c0-4.5-3.7-8.2-8.2-8.2h-18.6c-4.5,0-8.2,3.7-8.2,8.2v48.9h-25.8c-4.5,0-8.2,3.7-8.2,8.2v16.1c0,4.5,3.7,8.2,8.2,8.2h25.8v140.4c0,46.1,20,67.9,65.3,68.2h28.2c4.5,0,8.2-3.7,8.2-8.2-.9-8.9,3.8-24.2-8.2-24.8-13.1-.3-44.5,2.2-51.7-6.9-3.1-3.2-6.8-10.7-6.8-28.4v-140.4h58.5c4.5,0,8.2-3.7,8.2-8.2-.9-8.3,3.8-23.8-8.2-24.3h0v.1Z"/>
                    <path class="cls-5" d="M2828.3,1290.4c-21.5,23.3,9.8,56.4,33.8,35.1,21.8-23-9.7-57-33.8-35.1Z"/>
                    <path class="cls-5" d="M2854.4,1365.8h-18.6c-4.5,0-8.2,3.7-8.2,8.2v224.8c0,4.5,3.7,8.2,8.2,8.2h18.6c4.5,0,8.2-3.7,8.2-8.2v-224.8c0-4.5-3.7-8.2-8.2-8.2Z"/>
                    <path class="cls-5" d="M3184.7,1485.5c-25.2-12.4-71.2-14.8-91.5-36.1-10.6-12-8.9-33.4,5.9-43.7,28.9-22.2,88.6-10,88.6,32.1.2,4.3,3.8,7.7,8.2,7.7h18.6c4.6,0,8.5-4.1,8.2-8.6,1-93.8-166.5-100.6-171.2-7.4-1.9,62.9,70.1,68.4,115,84.3,45.2,17,17.1,67.5-24.8,64.1-30.9-.2-57.4-10.1-61-40.2-.4-4.2-3.9-7.4-8.2-7.4h-19c-4.7,0-8.7,4.3-8.2,9,4.7,49.6,47.8,71.4,96.4,71.2,75.7,4,119.2-90.2,43.1-124.9h-.1v-.1Z"/>
                    <path class="cls-5" d="M3433,1365.8h-18.6c-4.5,0-8.2,3.7-8.2,8.2v224.8c0,4.5,3.7,8.2,8.2,8.2h18.6c4.5,0,8.2-3.7,8.2-8.2v-224.8c0-4.5-3.7-8.2-8.2-8.2Z"/>
                    <path class="cls-5" d="M3406.9,1290.4c-21.5,23.3,9.8,56.4,33.8,35.1,21.8-23-9.7-57-33.8-35.1Z"/>
                    <path class="cls-5" d="M3733.4,1361.2c-29.4,0-55.8,9.7-74.6,30.7v-17.9c0-4.5-3.7-8.2-8.2-8.2h-18.6c-4.5,0-8.2,3.7-8.2,8.2v224.8c0,4.5,3.7,8.2,8.2,8.2h18.6c4.5,0,8.2-3.7,8.2-8.2v-121.3c0-28.1,6.6-49.3,19.5-63.1,22.4-26.5,78.4-28,101.3-1.8,12,12.6,18,31.4,18,55.8v130.4c0,4.5,3.7,8.2,8.2,8.2h18.2c4.5,0,8.2-3.7,8.2-8.2v-131.7c1.1-64.3-37.2-105.7-98.9-105.9h.1Z"/>
                    <path class="cls-5" d="M4245.4,1365.8h-18.6c-4.5,0-8.2,3.7-8.2,8.2v27.6c-6.1-7.5-13.4-14.2-21.9-20.1h0c-33-23.8-89.9-24.6-125.3-3.5-58,31.3-70.7,117.8-41.7,173,33.3,69.7,142.5,79.8,188.9,19.7-.2,23.1,2.6,58.1-9.9,77.2-30.2,56.8-129.5,44.9-145.5-16.4-1.1-3.4-4.2-5.8-7.8-5.8-8,.6-22-2.1-25.1,3.2-1.6,2-2.1,4.6-1.5,7,13.3,52.7,58.9,81.7,114.4,81.1,61.9,1.5,112.4-48.7,110.5-111.3v-231.9c0-4.5-3.7-8.2-8.2-8.2v.2h-.1ZM4134.1,1577.4c-73.9,3-101.7-82.9-73-140.4,27.2-56.5,118.9-54.7,146.4,1.2,30.5,57.4-1.3,141.5-73.3,139.2h-.1Z"/>
                    <path class="cls-5" d="M1971.5,1377.9c-82.8-44-181.5,10-177.7,108.3-3.6,106.4,110.1,158.6,191.7,101.1,8.8-7.1,42.5-38.3,19.4-43.4h-21.1c-2.7,0-5.3,1.3-6.8,3.6-42.6,57-145.1,30.7-147.2-45.7h185.5c4.2,0,7.7-3.1,8.1-7.3,6.3-43.5-10.3-94.5-51.8-116.7h0l-.1.1ZM1979.7,1431.9c6,10.6,9.2,23.4,9.6,38.3h-159.6c2.4-78,111.6-103.2,150-38.3Z"/>
                  </g>
                  <g>
                    <path class="cls-6" d="M1334.4,1091.6h-88.9c-6.7,0-12-5.4-12-12v-319.5c0-55-44.6-99.6-99.6-99.6h-151.4c-55,0-99.6,44.6-99.6,99.6v319.5c0,6.7-5.4,12-12,12h-88.9c-6.7,0-12-5.4-12-12v-319.5c0-117.4,95.2-212.6,212.6-212.6h151.4c117.4,0,212.6,95.2,212.6,212.6v319.5c0,6.6-5.4,12-12,12h-.2Z"/>
                    <path class="cls-6" d="M647.3,1091.3h-88.9c-6.7,0-12-5.4-12-12v-519.4c0-6.7,5.4-12,12-12h88.9c6.7,0,12,5.4,12,12v519.4c0,6.7-5.4,12-12,12Z"/>
                    <path class="cls-6" d="M4241.6,1091.3h-88.9c-6.6,0-12-5.4-12-12v-519.4c0-6.7,5.4-12,12-12h88.9c6.6,0,12,5.4,12,12v519.4c0,6.7-5.4,12-12,12Z"/>
                    <path class="cls-6" d="M3974.7,796.1c16.8-24.8,26.6-54.6,26.6-86.8v-7c0-85.6-69.4-154.9-154.9-154.9h-397.1c-6.6,0-12,5.4-12,12v520.1c0,6.7,5.4,12,12,12h412.3c91.7,0,166-74.3,166-166v-8.4c0-47.8-20.5-90.9-52.9-121.2v.2h0ZM3550.3,660.4h296.1c23.2,0,42,18.8,42,42v7c0,23.2-18.8,42-42,42h-296.1v-90.9h0v-.1ZM3914.6,925.7c0,29.3-23.7,53-53,53h-311.4v-114.3h311.4c29.3,0,53,23.7,53,53v8.4h0v-.1Z"/>
                    <path class="cls-6" d="M2286.9,547.5h-151.4c-61.7,0-117.2,26.3-156.1,68.3-38.8-42-94.4-68.3-156.1-68.3h-151.4c-117.4,0-212.6,95.2-212.6,212.6v319.5c0,6.7,5.4,12,12,12h88.9c6.7,0,12-5.4,12-12v-319.5c0-55,44.6-99.6,99.6-99.6h151.4c55,0,99.6,44.6,99.6,99.6v319.5c0,6.7,5.4,12,12,12h88.9c6.7,0,12-5.4,12-12v-319.5h0c0-55,44.6-99.6,99.6-99.6h151.4c55,0,99.6,44.6,99.6,99.6v319.5c0,6.7,5.4,12,12,12h88.9c6.6,0,12-5.4,12-12v-319.5c0-117.4-95.2-212.6-212.6-212.6h.3Z"/>
                  </g>
                </g>
                <g>
                  <path class="cls-4" d="M2587.855,775.011c48.363-80.169,135.151-129.156,228.765-129.156,25.429,0,306.348.149,310.49.149,36.716,0,64.218,8.721,83.713,23.96.651.509,1.51-.193,1.113-.918-34.317-62.795-96.678-121.804-172.002-122.351-.208,0-230.736.17-230.736.17-139.758,2.062-219.239,90.38-222.976,227.649-.024.906,1.165,1.273,1.633.497Z"/>
                  <path class="cls-3" d="M3352.594,819.824c0-212.865-113.967-282.324-245.458-272.634-.768.057-.977,1.09-.289,1.436,78.4,39.378,146.992,117.274,146.992,270.846,0,149.585-56.094,225.722-142.373,271.522-.674.358-.493,1.324.269,1.369,17.253,1.015,240.859,10.742,240.859-272.539Z"/>
                  <path class="cls-2" d="M3116.097,1074.009c41.378-24.396,78.812-61.534,97.189-105.488.306-.731-.557-1.361-1.17-.859-4.885,4-24.166,25.206-109.824,25.206h-291.578c-88.103,0-125.572-44.128-125.572-173.397,0-100.754,22.047-129.316,30.705-138.548.63-.697-.198-1.808-1.04-1.405-42.479,18.642-79.102,48.466-105.957,86.295-44.098,60.166-27.101,192.86,36.709,261.976,42.225,44.913,105.484,64.911,163.667,64.248l236.663.139c24.581.14,48.775-6.124,70.208-18.167Z"/>
                </g>
              </g>
            </g>
          </g>
        </g>
      </g>
    </g>
  </g>
</svg>