<?xml version="1.0" encoding="UTF-8"?>
<svg width="66px" height="66px" viewBox="0 0 66 66" version="1.1" xmlns="http://www.w3.org/2000/svg" xmlns:xlink="http://www.w3.org/1999/xlink">
    <!-- Generator: Sketch 53.2 (72643) - https://sketchapp.com -->
    <title>dynamic-reconfig-icon</title>
    <desc>Created with Sketch.</desc>
    <g id="Designs" stroke="none" stroke-width="1" fill="none" fill-rule="evenodd">
        <g id="Home-Page--Contour" transform="translate(-689.000000, -554.000000)" fill="#0091DA">
            <g id="Callout-2" transform="translate(569.000000, 512.000000)">
                <g id="dynamic-reconfig-icon" transform="translate(120.000000, 42.000000)">
                    <path d="M10.7477934,56.2522066 L55.2522066,56.2522066 L55.2522066,11.7477934 L10.7477934,11.7477934 L10.7477934,56.2522066 Z M9,58 L57,58 L57,10 L9,10 L9,58 Z" id="Fill-1"></path>
                    <polygon id="Fill-2" points="64.2357092 63 64.2357092 64.2352941 63 64.2352941 63 66 66 66 66 63"></polygon>
                    <polygon id="Fill-3" points="56 66 60 66 60 64 56 64"></polygon>
                    <polygon id="Fill-4" points="49 66 53 66 53 64 49 64"></polygon>
                    <polygon id="Fill-5" points="27 66 31 66 31 64 27 64"></polygon>
                    <polygon id="Fill-6" points="34 66 38 66 38 64 34 64"></polygon>
                    <polygon id="Fill-7" points="42 66 46 66 46 64 42 64"></polygon>
                    <polygon id="Fill-8" points="13 66 17 66 17 64 13 64"></polygon>
                    <polygon id="Fill-9" points="6 66 10 66 10 64 6 64"></polygon>
                    <polygon id="Fill-10" points="20 66 24 66 24 64 20 64"></polygon>
                    <polygon id="Fill-11" points="0 63 0 66 3 66 3 64.2352941 1.76470588 64.2352941 1.76470588 63"></polygon>
                    <polygon id="Fill-12" points="0 60 2 60 2 56 0 56"></polygon>
                    <polygon id="Fill-13" points="0 46 2 46 2 42 0 42"></polygon>
                    <polygon id="Fill-14" points="0 31 2 31 2 27 0 27"></polygon>
                    <polygon id="Fill-15" points="0 10 2 10 2 6 0 6"></polygon>
                    <polygon id="Fill-16" points="0 38 2 38 2 34 0 34"></polygon>
                    <polygon id="Fill-17" points="0 17 2 17 2 13 0 13"></polygon>
                    <polygon id="Fill-18" points="0 24 2 24 2 20 0 20"></polygon>
                    <polygon id="Fill-19" points="0 53 2 53 2 49 0 49"></polygon>
                    <polygon id="Fill-20" points="0 0 0 3 1.76470588 3 1.76470588 1.76470588 3 1.76470588 3 0"></polygon>
                    <polygon id="Fill-21" points="13 2 17 2 17 0 13 0"></polygon>
                    <polygon id="Fill-22" points="49 2 53 2 53 0 49 0"></polygon>
                    <polygon id="Fill-23" points="6 2 10 2 10 0 6 0"></polygon>
                    <polygon id="Fill-24" points="56 2 60 2 60 0 56 0"></polygon>
                    <polygon id="Fill-25" points="42 2 46 2 46 0 42 0"></polygon>
                    <polygon id="Fill-26" points="20 2 24 2 24 0 20 0"></polygon>
                    <polygon id="Fill-27" points="34 2 38 2 38 0 34 0"></polygon>
                    <polygon id="Fill-28" points="27 2 31 2 31 0 27 0"></polygon>
                    <polygon id="Fill-29" points="63 0 63 1.76470588 64.2357092 1.76470588 64.2357092 3 66 3 66 0"></polygon>
                    <polygon id="Fill-30" points="64 53 66 53 66 49 64 49"></polygon>
                    <polygon id="Fill-31" points="64 17 66 17 66 13 64 13"></polygon>
                    <polygon id="Fill-32" points="64 10 66 10 66 6 64 6"></polygon>
                    <polygon id="Fill-33" points="64 24 66 24 66 20 64 20"></polygon>
                    <polygon id="Fill-34" points="64 31 66 31 66 27 64 27"></polygon>
                    <polygon id="Fill-35" points="64 60 66 60 66 56 64 56"></polygon>
                    <polygon id="Fill-36" points="64 46 66 46 66 42 64 42"></polygon>
                    <polygon id="Fill-37" points="64 38 66 38 66 34 64 34"></polygon>
                    <path d="M39.0502919,18.0164878 C35.1707521,16.5481262 30.9501308,16.6740255 27.1640571,18.3719273 C23.3793784,20.0698291 20.4840224,23.1352338 19.0115829,27.0047248 C15.9718428,34.9920275 20.015297,43.9566149 28.024782,46.9879365 C29.8138902,47.6654278 31.6818168,48 33.5427683,48 C36.2009715,48 38.8452246,47.3162485 41.2230295,45.9682216 L40.3616071,44.4560387 C36.7708356,46.4919906 32.5006913,46.8223893 28.6434717,45.3623747 C21.5330745,42.6711899 17.9436981,34.7124059 20.6416592,27.621701 C21.9494868,24.1869452 24.519804,21.4651551 27.8797004,19.9578413 C31.2388992,18.4498319 34.9873075,18.3385396 38.4316023,19.6420496 C42.6836114,21.2516132 45.7931023,24.7468841 46.9028377,29.0984095 L44.5864134,29.522711 L48.8147073,34.4738232 L51,28.3471871 L48.6208,28.7833134 C47.3973709,23.8287234 43.8784427,19.8430712 39.0502919,18.0164878" id="Fill-38"></path>
                </g>
            </g>
        </g>
    </g>
</svg>