<?xml version="1.0" encoding="UTF-8"?>
<svg width="38px" height="38px" viewBox="0 0 38 38" version="1.1" xmlns="http://www.w3.org/2000/svg" xmlns:xlink="http://www.w3.org/1999/xlink">
    <!-- Generator: Sketch 48.2 (47327) - http://www.bohemiancoding.com/sketch -->
    <title>logo_contour</title>
    <desc>Created with Sketch.</desc>
    <defs></defs>
    <g id="Ark" stroke="none" stroke-width="1" fill="none" fill-rule="evenodd">
        <g id="logo_contour" fill-rule="nonzero">
            <path d="M30.1185185,0 L25.562047,0 C23.7245689,11.7511098 17.5406845,19.9685694 12.2160286,25.0520829 C8.24185985,28.849034 3.95520126,31.6854597 0,33.6112634 L0,35.6074074 C4.86848715,33.7871142 10.5928834,30.5581135 15.8117955,25.8381834 C21.6058974,20.5964043 28.3564363,12.0914049 30.1185185,0 Z" id="Shape"></path>
            <path d="M25.0518519,0 L20.1531764,0 C18.2849285,11.0282386 12.7844526,18.7129224 8.02860956,23.4967339 C5.60185042,25.9372385 2.9090104,28.1010495 0,29.9480617 L0,32.7925926 C4.48922253,30.5413036 8.78895407,27.4183799 11.8479481,24.5203484 C17.1075134,19.5386317 23.2126466,11.4941204 25.0518519,0 Z" id="Shape"></path>
            <path d="M19.8444444,0 L0,0 L0,29.6962963 C2.82965725,27.8765497 5.45127405,25.7530724 7.81801288,23.3638023 C12.531556,18.6043422 17.9818577,10.9632816 19.8444444,0 Z" id="Shape"></path>
            <path d="M31.0217199,13.3274812 C33.2754447,9.0929845 34.7152453,4.62817145 35.3259259,0 L31.0953245,0 C29.3264401,12.417138 22.3971622,21.1378173 16.453236,26.5015765 C12.6243731,29.9567966 8.19860079,32.912444 3.65363652,35.0470254 C2.418979,35.6282774 1.19191937,36.1392473 0,36.5709123 L0,37.8592593 C5.69034655,36.3738375 13.1011409,32.8383628 19.8575667,27.0320164 C24.5891542,22.9665766 28.3453623,18.3555008 31.0217199,13.3274812 Z" id="Shape"></path>
            <path d="M38,13.5111111 C37.7331792,14.0374064 37.4543309,14.5602162 37.1634551,15.0795407 C34.208961,20.3504146 30.0798857,25.1873563 24.8911235,29.4563364 C20.7055506,32.8992769 15.9654462,35.8379436 11.1185185,38 L38,38 L38,13.5111111 Z" id="Shape"></path>
            <path d="M35.801432,14.3270046 C36.6295836,12.8523901 37.3639,11.3269181 38,9.75969002 L38,0 L36.5915498,0 C35.974641,4.83424786 34.4836199,9.49655647 32.1341464,13.9166302 C29.3865296,19.0828823 25.5379678,23.8154865 20.6900137,27.983826 C16.5386921,31.5541779 11.7685635,34.5859134 6.89783125,36.7508281 C5.85383174,37.215349 4.81647588,37.631423 3.8,38 L6.9319985,38 C12.1752487,36.1314668 18.2209549,32.9311168 23.9074304,28.2536091 C28.9414062,24.1090182 32.9437206,19.4262859 35.801432,14.3270046 Z" id="Shape"></path>
            <path d="M20.1259259,0 L19.8373191,0 C17.9754012,10.9429742 12.5270564,18.5698812 7.81520576,23.3205254 C5.44931672,25.7053698 2.82864124,27.8249138 0,29.6412896 L0,29.9777778 C2.90507693,28.1289328 5.59427577,25.9629747 8.01775352,23.5200486 C12.7671658,18.7314903 18.2602042,11.0391814 20.1259259,0 Z" id="Shape" fill="#FFFFFF"></path>
            <path d="M25.6148148,0 L25.0023249,0 C23.1667556,11.4987215 17.0736922,19.546453 11.824525,24.5301638 C8.77157849,27.4293554 4.48034743,30.5535292 0,32.8057194 L0,33.4962963 C3.96336599,31.5770798 8.25887355,28.7479879 12.2412462,24.9663925 C17.5768938,19.9002671 23.7735436,11.7109152 25.6148148,0 Z" id="Shape" fill="#FFFFFF"></path>
            <path d="M16.4576697,26.5172873 C22.4031976,21.1479726 29.3343427,12.4244992 31.1037037,0 L30.1698611,0 C28.4047751,12.0885607 21.6427286,20.5915596 15.8387496,25.8311554 C10.610941,30.5499753 4.87678638,33.7782164 0,35.5980815 L0,36.5925926 C1.19224056,36.1592461 2.41725586,35.6493988 3.65462106,35.0678022 C8.20081006,32.9314802 12.627775,29.9745558 16.4576697,26.5172873 Z" id="Shape" fill="#FFFFFF"></path>
            <path d="M20.6747768,27.9832 C25.526269,23.8146 29.380196,19.0817 32.1306258,13.915125 C34.4825046,9.497625 35.9750522,4.83455 36.5925926,0 L35.3380356,0 C34.7271456,4.62935 33.2868514,9.0953 31.032354,13.330875 C28.355079,18.360175 24.5975833,22.973375 19.8643738,27.039375 C13.1056319,32.846725 5.69229719,36.385 0,37.8689 L0,38 L3.76747133,38 C4.78498786,37.6314 5.82150564,37.2153 6.86847409,36.75075 C11.745143,34.585225 16.5192051,31.553775 20.6747768,27.9832 Z" id="Shape" fill="#FFFFFF"></path>
            <path d="M37.1629288,15.0266473 C37.454621,14.508682 37.7336448,13.9878759 38,13.4642291 L38,9.71111111 C37.3631982,11.2733559 36.6280716,12.7939774 35.7990063,14.2639032 C32.9381421,19.3469705 28.9314119,24.0148133 23.890457,28.1438586 C18.1977077,32.8064934 12.1453313,35.9966673 6.8962963,37.8592593 L11.1025553,37.8592593 C15.9515825,35.7054894 20.6956194,32.7780858 24.8838258,29.348341 C30.0749025,25.0957227 34.2065757,20.2773195 37.1629288,15.0266473 Z" id="Shape" fill="#FFFFFF"></path>
        </g>
    </g>
</svg>