<?xml version="1.0" encoding="UTF-8"?>
<svg width="93px" height="48px" viewBox="0 0 93 48" version="1.1" xmlns="http://www.w3.org/2000/svg" xmlns:xlink="http://www.w3.org/1999/xlink">
    <!-- Generator: Sketch 53.2 (72643) - https://sketchapp.com -->
    <title>icon-dial</title>
    <desc>Created with Sketch.</desc>
    <g id="Designs" stroke="none" stroke-width="1" fill="none" fill-rule="evenodd">
        <g id="Home-Page--Contour" transform="translate(-312.000000, -1763.000000)" fill="#FFFFFF">
            <g id="Use-Cases" transform="translate(250.000000, 1112.000000)">
                <g id="3" transform="translate(0.000000, 572.000000)">
                    <g id="icon-dial" transform="translate(62.000000, 79.000000)">
                        <path d="M46.3354,2.5 C22.5854,2.5 3.1854,21.486 2.5174,45.078 C7.5854,45.048 26.9384,45.07 46.1264,45.078 C90.1374,45.095 90.1444,45.078 90.1244,45.078 C89.4294,21.51 70.0674,2.5 46.3354,2.5 L46.3354,2.5 Z M0.0004,47.593 L0.0004,46.335 C0.0004,20.786 20.7864,0 46.3354,0 C71.7104,0 92.3854,20.5 92.6674,45.81 L92.6684,45.81 L92.6684,45.889 C92.6694,46.037 92.6704,46.187 92.6704,46.335 C92.6704,46.335 92.7254,47.627 92.6634,47.592 C92.6834,47.651 36.0944,47.373 1.2574,47.585 L0.0004,47.593 Z" id="Fill-1"></path>
                        <path d="M35.9526,7.3359 L36.8706,10.7629" id="Fill-3"></path>
                        <path d="M36.8706,11.8735 C36.3806,11.8735 35.9326,11.5465 35.7996,11.0505 L34.8816,7.6235 C34.7226,7.0315 35.0736,6.4235 35.6656,6.2645 C36.2566,6.1025 36.8656,6.4575 37.0246,7.0495 L37.9426,10.4765 C38.1016,11.0675 37.7506,11.6765 37.1586,11.8345 C37.0626,11.8615 36.9656,11.8735 36.8706,11.8735" id="Fill-5"></path>
                        <path d="M18.3423,17.2988 L20.8513,19.8078" id="Fill-7"></path>
                        <path d="M20.8511,20.917 C20.5671,20.917 20.2841,20.809 20.0671,20.592 L17.5581,18.083 C17.1241,17.65 17.1241,16.948 17.5581,16.514 C17.9911,16.081 18.6931,16.081 19.1271,16.514 L21.6361,19.023 C22.0691,19.457 22.0691,20.159 21.6361,20.592 C21.4191,20.809 21.1351,20.917 20.8511,20.917" id="Fill-9"></path>
                        <path d="M84.9619,34.9653 L81.5349,35.8833" id="Fill-11"></path>
                        <path d="M81.5342,36.9937 C81.0442,36.9937 80.5962,36.6667 80.4632,36.1707 C80.3042,35.5787 80.6552,34.9707 81.2472,34.8117 L84.6752,33.8937 C85.2672,33.7327 85.8752,34.0867 86.0342,34.6787 C86.1922,35.2697 85.8412,35.8787 85.2492,36.0367 L81.8222,36.9557 C81.7262,36.9817 81.6292,36.9937 81.5342,36.9937" id="Fill-13"></path>
                        <path d="M9.2573,31.8691 L12.6843,32.7871" id="Fill-15"></path>
                        <path d="M12.6851,33.898 C12.5901,33.898 12.4941,33.885 12.3971,33.859 L8.9701,32.941 C8.3781,32.783 8.0271,32.174 8.1851,31.582 C8.3441,30.991 8.9501,30.64 9.5441,30.798 L12.9721,31.716 C13.5641,31.874 13.9151,32.482 13.7561,33.075 C13.6231,33.57 13.1751,33.898 12.6851,33.898" id="Fill-17"></path>
                        <path d="M74.9092,17.2988 L72.4002,19.8078" id="Fill-19"></path>
                        <path d="M72.3999,20.917 C72.1159,20.917 71.8329,20.809 71.6159,20.592 C71.1819,20.159 71.1819,19.457 71.6159,19.023 L74.1249,16.514 C74.5579,16.081 75.2599,16.081 75.6929,16.514 C76.1269,16.948 76.1269,17.65 75.6929,18.083 L73.1849,20.592 C72.9679,20.809 72.6839,20.917 72.3999,20.917" id="Fill-21"></path>
                        <path d="M56.8296,6.5625 L55.9116,9.9895" id="Fill-23"></path>
                        <path d="M55.9116,11.1001 C55.8166,11.1001 55.7206,11.0871 55.6236,11.0611 C55.0316,10.9031 54.6806,10.2941 54.8396,9.7031 L55.7576,6.2751 C55.9166,5.6841 56.5226,5.3331 57.1166,5.4911 C57.7086,5.6501 58.0596,6.2581 57.9006,6.8501 L56.9826,10.2771 C56.8496,10.7731 56.4016,11.1001 55.9116,11.1001" id="Fill-25"></path>
                        <path d="M71.6084,35.1646 C71.4044,34.5946 70.9714,34.2276 70.6404,34.3456 L48.7384,40.9886 C48.0094,40.6376 47.1954,40.4346 46.3324,40.4346 C43.2684,40.4346 40.7854,42.9176 40.7854,45.9816 L51.8804,45.9816 C51.8804,45.4816 51.8084,44.9996 51.6844,44.5386 L71.3784,36.4116 C71.7094,36.2936 71.8124,35.7356 71.6084,35.1646" id="Fill-27"></path>
                    </g>
                </g>
            </g>
        </g>
    </g>
</svg>