<?xml version="1.0" encoding="UTF-8"?>
<svg width="95px" height="95px" viewBox="0 0 95 95" version="1.1" xmlns="http://www.w3.org/2000/svg" xmlns:xlink="http://www.w3.org/1999/xlink">
    <!-- Generator: Sketch 53.2 (72643) - https://sketchapp.com -->
    <title>icon-tree</title>
    <desc>Created with Sketch.</desc>
    <defs>
        <polygon id="path-1" points="0 94.7159 94.858 94.7159 94.858 -0.0001 0 -0.0001"></polygon>
    </defs>
    <g id="Designs" stroke="none" stroke-width="1" fill="none" fill-rule="evenodd">
        <g id="Home-Page--Contour" transform="translate(-1033.000000, -1487.000000)">
            <g id="Use-Cases" transform="translate(250.000000, 1112.000000)">
                <g id="2" transform="translate(0.000000, 322.000000)">
                    <g id="icon-tree" transform="translate(783.000000, 53.000000)">
                        <path d="M30.8545,4.5253 C30.4865,4.5253 30.2235,4.7703 30.2235,5.1673 C30.2235,5.5553 30.4755,5.7753 30.8335,5.7753 L30.8435,5.7753 C31.2325,5.7753 31.4735,5.5373 31.4735,5.1503 C31.4735,4.7533 31.2215,4.5253 30.8545,4.5253" id="Fill-1" fill="#FFFFFF"></path>
                        <path d="M33.3545,4.5253 C32.9865,4.5253 32.7235,4.7703 32.7235,5.1673 C32.7235,5.5553 32.9755,5.7753 33.3335,5.7753 L33.3435,5.7753 C33.7325,5.7753 33.9735,5.5373 33.9735,5.1503 C33.9735,4.7533 33.7215,4.5253 33.3545,4.5253" id="Fill-3" fill="#FFFFFF"></path>
                        <path d="M35.8545,4.5253 C35.4865,4.5253 35.2235,4.7703 35.2235,5.1673 C35.2235,5.5553 35.4755,5.7753 35.8335,5.7753 L35.8435,5.7753 C36.2325,5.7753 36.4735,5.5373 36.4735,5.1503 C36.4735,4.7533 36.2215,4.5253 35.8545,4.5253" id="Fill-5" fill="#FFFFFF"></path>
                        <mask id="mask-2" fill="white">
                            <use xlink:href="#path-1"></use>
                        </mask>
                        <g id="Clip-8"></g>
                        <path d="M32.331,92.2159 L62.331,92.2159 L62.331,45.9629 L32.331,45.9629 L32.331,92.2159 Z M28.045,8.5939 L59.291,8.5939 L59.291,7.3439 L28.045,7.3439 L28.045,2.4999 L63.045,2.4999 L63.045,22.4999 L28.045,22.4999 L28.045,8.5939 Z M81.321,45.7639 L81.321,33.4059 L46.532,33.4059 L46.532,24.9999 L65.545,24.9999 L65.545,-0.0001 L25.545,-0.0001 L25.545,24.9999 L44.032,24.9999 L44.032,33.4059 L11.886,33.4059 L11.886,45.7639 L0,45.7639 L0,92.5279 L25,92.5279 L25,90.0279 L2.5,90.0279 L2.5,48.2639 L25,48.2639 L25,45.7639 L14.386,45.7639 L14.386,35.9059 L44.032,35.9059 L44.032,43.4629 L29.831,43.4629 L29.831,94.7159 L64.831,94.7159 L64.831,43.4629 L46.532,43.4629 L46.532,35.9059 L78.821,35.9059 L78.821,45.7639 L69.858,45.7639 L69.858,48.2639 L92.358,48.2639 L92.358,90.0279 L69.858,90.0279 L69.858,92.5279 L94.858,92.5279 L94.858,45.7639 L81.321,45.7639 Z" id="Fill-7" fill="#FFFFFF" mask="url(#mask-2)"></path>
                        <polygon id="Fill-9" fill="#FFFFFF" mask="url(#mask-2)" points="37.331 83.2719 57.331 83.2719 57.331 80.7719 37.331 80.7719"></polygon>
                        <polygon id="Fill-10" fill="#FFFFFF" mask="url(#mask-2)" points="37.331 73.8139 57.331 73.8139 57.331 71.3139 37.331 71.3139"></polygon>
                        <polygon id="Fill-11" fill="#FFFFFF" mask="url(#mask-2)" points="37.331 64.6089 57.331 64.6089 57.331 62.1089 37.331 62.1089"></polygon>
                        <polygon id="Fill-12" fill="#FFFFFF" mask="url(#mask-2)" points="37.331 55.3829 57.331 55.3829 57.331 52.8829 37.331 52.8829"></polygon>
                        <polygon id="Fill-13" fill="#FFFFFF" mask="url(#mask-2)" points="7.367 85.5079 24.867 85.5079 24.867 83.0079 7.367 83.0079"></polygon>
                        <polygon id="Fill-14" fill="#FFFFFF" mask="url(#mask-2)" points="7.367 76.0499 24.867 76.0499 24.867 73.5499 7.367 73.5499"></polygon>
                        <polygon id="Fill-15" fill="#FFFFFF" mask="url(#mask-2)" points="7.367 66.8459 24.867 66.8459 24.867 64.3459 7.367 64.3459"></polygon>
                        <polygon id="Fill-16" fill="#FFFFFF" mask="url(#mask-2)" points="7.367 57.6199 24.867 57.6199 24.867 55.1199 7.367 55.1199"></polygon>
                        <polygon id="Fill-17" fill="#FFFFFF" mask="url(#mask-2)" points="69.913 85.5079 87.413 85.5079 87.413 83.0079 69.913 83.0079"></polygon>
                        <polygon id="Fill-18" fill="#FFFFFF" mask="url(#mask-2)" points="69.913 76.0499 87.413 76.0499 87.413 73.5499 69.913 73.5499"></polygon>
                        <polygon id="Fill-19" fill="#FFFFFF" mask="url(#mask-2)" points="69.913 66.8459 87.413 66.8459 87.413 64.3459 69.913 64.3459"></polygon>
                        <polygon id="Fill-20" fill="#FFFFFF" mask="url(#mask-2)" points="69.913 57.6199 87.413 57.6199 87.413 55.1199 69.913 55.1199"></polygon>
                        <polygon id="Fill-21" fill="#FFFFFF" mask="url(#mask-2)" points="51.2627 19.9594 44.6127 16.1204 45.8627 13.9554 52.5127 17.7944"></polygon>
                        <polygon id="Fill-22" fill="#FFFFFF" mask="url(#mask-2)" points="48.8066 11.6284 39.3336 11.6284 44.0696 19.8334"></polygon>
                    </g>
                </g>
            </g>
        </g>
    </g>
</svg>