<?xml version="1.0" encoding="UTF-8"?>
<svg width="1440px" height="500px" viewBox="0 0 1440 500" version="1.1" xmlns="http://www.w3.org/2000/svg" xmlns:xlink="http://www.w3.org/1999/xlink">
    <!-- Generator: Sketch 53.2 (72643) - https://sketchapp.com -->
    <title>Hero CTA</title>
    <desc>Created with Sketch.</desc>
    <defs>
        <rect id="path-1" x="0" y="0" width="1440" height="500"></rect>
        <polygon id="path-3" points="0 0.0386929134 1098.77842 0.0386929134 1098.77842 566.656303 0 566.656303"></polygon>
        <rect id="path-5" x="0" y="0" width="69" height="464"></rect>
    </defs>
    <g id="Designs" stroke="none" stroke-width="1" fill="none" fill-rule="evenodd">
        <g id="Home-Page--Contour" transform="translate(0.000000, -80.000000)">
            <g id="Hero-CTA" transform="translate(0.000000, 80.000000)">
                <mask id="mask-2" fill="white">
                    <use xlink:href="#path-1"></use>
                </mask>
                <use id="Mask" fill="#1D428A" xlink:href="#path-1"></use>
                <g id="road" mask="url(#mask-2)">
                    <g transform="translate(37.000000, -203.000000)">
                        <g id="Group-209" transform="translate(1180.000000, 549.500000) rotate(90.000000) translate(-1180.000000, -549.500000) translate(630.500000, 210.500000)">
                            <g id="Group-3">
                                <mask id="mask-4" fill="white">
                                    <use xlink:href="#path-3"></use>
                                </mask>
                                <g id="Clip-2"></g>
                                <path d="M467.241337,283.056594 C467.241337,273.197342 475.257048,265.176748 485.109382,265.176748 C494.961716,265.176748 502.976683,273.197342 502.976683,283.056594 C502.976683,292.91659 494.961716,300.937929 485.109382,300.937929 C475.257048,300.937929 467.241337,292.91659 467.241337,283.056594 L467.241337,283.056594 Z M1022.58656,301.167854 L953.751832,301.179015 L953.751832,301.16711 L804.238013,301.167854 L735.403286,301.179015 L735.403286,301.16711 L663.580141,301.065169 L663.580141,301.054752 L625.986608,301.054752 C607.702906,301.054752 592.828484,315.939618 592.828484,334.235413 L593.090965,367.37887 L593.090965,412.055791 L593.087991,412.055791 L593.087991,429.012216 C593.087991,433.872641 593.826358,438.384086 595.250299,442.478838 L586.775061,442.478838 L586.775061,442.478094 L547.361263,442.478094 L547.361263,442.499673 L508.653858,442.249657 C503.178935,442.249657 496.857826,438.142256 496.857826,433.092086 L496.857826,395.471413 L496.770084,395.471413 L496.770084,336.347897 L496.760418,336.347897 L496.993156,318.000015 C507.786853,314.313771 516.343884,305.751476 520.026798,294.9502 L552.613115,294.9502 L552.613115,271.164476 L520.026798,271.164476 C516.343884,260.3632 507.786853,251.800161 496.993156,248.114661 L496.993156,215.505464 L497.017694,215.505464 L497.017694,198.548295 C497.017694,193.68787 496.278583,189.177169 494.855385,185.081673 L503.32988,185.081673 L503.32988,185.040748 L540.840133,185.351035 C559.123834,185.351035 573.998257,170.466169 573.998257,152.170374 L573.998257,115.91437 L549.992022,115.91437 L549.992022,152.170374 C549.992022,157.219799 545.886015,161.327944 540.840133,161.327944 L503.32988,161.327944 L503.32988,161.296693 L428.818721,161.296693 L378.70789,161.296693 L378.70789,142.171232 L378.545048,142.171232 L378.545048,110.04272 C378.545048,91.8124051 363.724163,76.9818579 345.506639,76.9818579 L321.143489,76.9818579 L321.143489,76.9840902 L296.781083,76.9840902 C291.669023,76.9840902 287.510223,72.8223697 287.510223,67.7074642 L287.510223,44.9106413 L287.602426,33.2194287 C287.602426,14.9236335 272.728004,0.0380232283 254.444302,0.0380232283 L216.850769,0.0380232283 L216.850769,0.0491846457 L145.027624,0.151125591 L145.027624,0.163031102 L76.1921531,0.151869685 L-0.000223071719,0.151125591 L-0.000223071719,23.93685 L76.4085327,23.9361059 L145.027624,23.9204799 L145.027624,23.93685 L216.850769,24.0402791 L216.850769,24.0618579 L254.444302,24.0618579 C259.490184,24.0618579 263.596191,28.1700035 263.596191,33.2194287 L263.596191,69.4754327 L263.791007,69.4769209 C264.713037,86.8872437 279.156187,100.76907 296.781083,100.76907 L321.143489,100.76907 L321.143489,100.767582 L345.506639,100.767582 C350.617212,100.767582 354.776012,104.927815 354.776012,110.04272 L354.776012,144.056767 L354.938855,144.056767 L354.938855,201.345346 L354.921009,201.345346 L354.921009,235.359393 C354.921009,240.474299 350.762209,244.635275 345.651636,244.635275 L321.287742,244.635275 L321.287742,244.633043 L296.92608,244.633043 C279.301184,244.633043 264.858033,258.515614 263.936004,275.926681 L263.741188,275.927425 L263.741188,312.183429 C263.741188,317.232854 259.635181,321.341 254.589299,321.341 L216.995765,321.341 L216.995765,321.362578 L145.172621,321.466007 L145.172621,321.483122 L76.5535293,321.466752 L0.144773545,321.466007 L0.144773545,345.251732 L76.3371497,345.250988 L145.172621,345.239082 L145.172621,345.251732 L216.995765,345.353673 L216.995765,345.36409 L254.589299,345.36409 C272.873,345.36409 287.747422,330.47848 287.747422,312.183429 L287.655219,300.492216 L287.655219,277.695393 C287.655219,272.580488 291.81402,268.418767 296.92608,268.418767 L321.287742,268.418767 L321.287742,268.421744 L345.651636,268.421744 C363.869159,268.421744 378.690044,253.589708 378.690044,235.359393 L378.690044,204.208622 L378.70789,204.208622 L378.70789,185.083161 L428.818721,185.083161 L428.818721,185.081673 L459.585516,185.081673 C460.13799,185.112181 464.047694,185.394193 467.558843,187.332559 C470.208935,188.796193 473.249402,191.393082 473.249402,198.548295 L473.249402,215.505464 L473.224121,215.505464 L473.224121,248.114661 C462.431167,251.800161 453.87488,260.3632 450.191222,271.164476 L417.605649,271.164476 L417.605649,294.9502 L450.191222,294.9502 C453.87488,305.751476 462.431167,314.313771 473.224121,318.000015 L473.224121,336.347897 L473.001792,336.347897 L473.001792,395.471413 L472.924461,395.471413 L472.924461,433.092086 C472.924461,451.38937 488.815347,466.273492 508.653858,466.273492 L547.967274,466.273492 L547.967274,466.263819 L586.775061,466.263819 L586.775061,466.264563 L617.5426,466.264563 C618.095074,466.29507 622.004034,466.576338 625.51667,468.515448 C628.165275,469.978338 631.205742,472.574484 631.205742,479.731185 L631.205742,496.68761 L630.975979,496.68761 L630.975979,532.94287 C630.975979,537.992295 626.869972,542.101185 621.82409,542.101185 L584.229813,542.101185 L584.229813,566.124275 L621.82409,566.124275 C640.107791,566.124275 654.982213,551.238665 654.982213,532.94287 L654.982213,496.68761 L654.975521,496.68761 L654.975521,479.731185 C654.975521,474.870759 654.237154,470.359315 652.813213,466.264563 L661.287707,466.264563 L661.287707,466.231822 L685.342274,466.231822 L685.342274,490.303279 L685.342274,566.656303 L709.111309,566.656303 L709.111309,490.303279 L709.110566,490.303279 L709.110566,466.231822 L730.793137,466.231822 C755.855244,466.231822 776.245487,445.828007 776.245487,420.748303 C776.245487,395.669342 755.855244,375.265527 730.793137,375.265527 C705.731029,375.265527 685.342274,395.669342 685.342274,420.748303 L685.342274,442.435681 L709.110566,442.435681 L709.110566,420.748303 C709.110566,408.784752 718.83798,399.051252 730.793137,399.051252 C742.749781,399.051252 752.475708,408.784752 752.475708,420.748303 C752.475708,432.712598 742.749781,442.446098 730.793137,442.446098 L661.287707,442.446098 L661.287707,442.478838 L630.520169,442.478838 C629.967694,442.44833 626.058734,442.166319 622.546842,440.227208 C619.897493,438.765063 616.856282,436.168173 616.856282,429.012216 L616.856282,412.705385 L616.859257,412.705385 L616.859257,336.353106 L616.834719,336.353106 L616.834719,334.235413 C616.834719,329.185988 620.940726,325.077842 625.986608,325.077842 L663.580141,325.077842 L663.580141,325.056263 L735.403286,324.952834 L735.403286,324.936464 L804.022377,324.95209 L877.342333,325.06296 L953.751832,324.952834 L953.751832,324.936464 L1022.37092,324.95209 L1098.77894,324.952834 L1098.77894,301.16711 L1022.58656,301.167854 Z" id="Fill-1" fill="#00C1D5" mask="url(#mask-4)"></path>
                            </g>
                            <path d="M513.159201,611.176817 L513.148778,645.062471 C513.148778,650.158181 508.986227,654.303541 503.867726,654.303541 L455.080035,654.303541 C449.961534,654.303541 445.798238,650.158181 445.798238,645.062471 L445.798238,610.176817 L422,610.176817 L422,645.062471 C422,663.224369 436.839558,678 455.080035,678 L503.867726,678 C522.108202,678 536.948505,663.224369 536.948505,645.062471 L536.948505,611.176817 L537.195682,575.056879 C537.195682,570.026403 541.306862,565.932934 546.359102,565.932934 L585,565.932934 L585,542 L546.359102,542 C528.052364,542 513.159201,556.829746 513.159201,575.056879 L513.159201,611.176817 Z" id="Fill-6" fill="#00C1D5"></path>
                            <path d="M433,618.11877 L434.902606,618.11877 L434.902606,611 L433,611 L433,618.11877 Z M524.097394,623.032131 L526,623.032131 L526,615.914104 L524.097394,615.914104 L524.097394,623.032131 Z M433,632.35631 L434.902606,632.35631 L434.902606,625.23754 L433,625.23754 L433,632.35631 Z M524.097394,637.269671 L526,637.269671 L526,630.150901 L524.097394,630.150901 L524.097394,637.269671 Z M433.066967,646.663627 C433.023066,646.092047 433,645.509332 433,644.931813 L433,639.47508 L434.902606,639.47508 L434.902606,644.931813 C434.902606,645.459597 434.924184,645.993319 434.96362,646.517391 L433.066967,646.663627 Z M524.94341,651.690562 L523.131582,651.109332 C523.772232,649.120679 524.097394,647.042206 524.097394,644.931813 L524.097394,644.388441 L526,644.388441 L526,644.931813 C526,647.239661 525.643587,649.513362 524.94341,651.690562 L524.94341,651.690562 Z M438.974197,660.016331 C437.264307,658.194698 435.886276,656.118452 434.879539,653.844008 L436.618448,653.0772 C437.54036,655.154931 438.798595,657.053022 440.364134,658.718028 L438.974197,660.016331 Z M516.108979,663.32333 L515.056854,661.742206 C516.956483,660.482503 518.618752,658.923648 519.99976,657.108696 L521.515446,658.254825 C520.006457,660.239767 518.187187,661.945599 516.108979,663.32333 L516.108979,663.32333 Z M451.939002,666.772853 C449.465688,666.418028 447.091337,665.65122 444.877707,664.496182 L445.760183,662.814104 C447.781097,663.869671 449.950827,664.568929 452.209846,664.894062 L451.939002,666.772853 Z M459.198221,667 L466.333923,667 L466.333923,665.101166 L459.198221,665.101166 L459.198221,667 Z M473.468881,667 L480.605327,667 L480.605327,665.101166 L473.468881,665.101166 L473.468881,667 Z M487.741029,667 L494.876731,667 L494.876731,665.101166 L487.741029,665.101166 L487.741029,667 Z M503.879323,667 L502.012433,667 L502.012433,665.101166 L503.879323,665.101166 C505.565403,665.101166 507.241065,664.894062 508.858689,664.485048 L509.325226,666.325981 C507.555066,666.772853 505.722403,667 503.879323,667 L503.879323,667 Z" id="Fill-7" fill="#FFFFFF"></path>
                            <path d="M916.476596,88.1103388 L916.476596,88.1267405 L847.755213,88.1118298 L771.232553,88.8566165 L738.475532,88.8566165 C720.230851,88.8566165 705.387128,103.715073 705.387128,121.982104 L705.387128,146.407975 L705.389362,146.407975 L705.389362,170.836084 C705.389362,175.960127 701.225106,180.129888 696.10617,180.129888 L662.449574,180.129888 L628.408723,179.893555 C610.164043,179.893555 595.321064,194.754248 595.321064,213.019787 L595.321064,237.44715 L595.323298,237.44715 L595.323298,261.874513 C595.323298,266.999301 591.159043,271.169063 586.040106,271.169063 L552,271.169063 L552,295 L586.040106,295 C604.284787,295 619.127766,280.140052 619.127766,261.874513 L619.127766,237.44715 L619.125532,237.44715 L619.125532,213.019787 C619.125532,207.894999 623.290532,203.725983 628.408723,203.725983 L662.065319,203.725983 L696.10617,203.961571 C714.350851,203.961571 729.19383,189.101623 729.19383,170.836084 L729.19383,146.407975 L729.191596,146.407975 L729.191596,121.982104 C729.191596,116.85657 733.356596,112.686063 738.475532,112.686063 L772.515638,112.47955 L847.538511,111.941276 L916.476596,111.929347 L916.476596,111.942021 L992.781809,112.050124 L993,88 L916.476596,88.1103388 Z" id="Fill-8" fill="#00C1D5"></path>
                            <path d="M412.904717,544.14518 L388.499628,544.14518 L388.499628,544.147405 L364.094538,544.147405 C358.974422,544.147405 354.808463,539.999386 354.808463,534.901321 L354.808463,501 L331,501 L331,534.901321 C331,553.071616 345.845654,567.85482 364.094538,567.85482 L388.499628,567.85482 L388.499628,567.852595 L412.904717,567.852595 C418.024833,567.852595 422.190047,571.999872 422.190047,577.097938 L422.190047,611 L446,611 L446,577.097938 C446,558.927642 431.153602,544.14518 412.904717,544.14518" id="Fill-9" fill="#00C1D5"></path>
                            <path d="M354.859777,431.447986 C354.859777,419.485072 364.587959,409.752091 376.54406,409.752091 C388.501649,409.752091 398.228344,419.485072 398.228344,431.447986 C398.228344,443.411643 388.501649,453.144625 376.54406,453.144625 L354.859777,453.144625 L354.859777,431.447986 Z M354.859777,501 L354.859777,476.929082 L376.54406,476.929082 C401.608147,476.929082 422,456.526354 422,431.447986 C422,406.370361 401.608147,385.96689 376.54406,385.96689 C351.479973,385.96689 331.089608,406.370361 331.089608,431.447986 L331.089608,453.144625 L307.033141,453.144625 L273.041018,453.181084 C267.929298,453.181084 263.770169,449.020329 263.770169,443.904952 L263.770169,395.147038 C263.770169,390.031661 267.929298,385.870906 273.041018,385.870906 L307.033141,385.870906 L341.025263,385.878347 C359.244226,385.878347 374.067025,371.047102 374.067025,352.817758 L374.067025,328.439546 L374.064794,304.059845 C374.064794,298.945212 378.223179,294.783713 383.3349,294.783713 L417.818696,294.946094 L417.818696,271.167522 L383.3349,271 C365.115937,271 350.293881,285.830501 350.293881,304.059845 L350.293881,328.439546 L350.296112,352.817758 C350.296112,357.932391 346.137727,362.093146 341.025263,362.093146 L307.033141,362.093146 L273.041018,362.087194 C254.821312,362.087194 240,376.917695 240,395.147038 L240,443.904952 C240,462.134295 254.821312,476.966285 273.041018,476.966285 L307.033141,476.966285 L331.089608,476.929082 L331.089608,501 L354.859777,501 Z" id="Fill-10" fill="#00C1D5"></path>
                            <path d="M355,453 L320,453 L320,387 L355,387 L355,385 L435,385 L435,485 L355,485 L355,453 Z" id="Combined-Shape" fill="#1D428A"></path>
                            <path d="M484,343.132322 L486,343.132322 L486,336 L484,336 L484,343.132322 Z M484,357.398452 L486,357.398452 L486,350.265387 L484,350.265387 L484,357.398452 Z M484,371.664583 L486,371.664583 L486,364.531517 L484,364.531517 L484,371.664583 Z M484,385.92997 L486,385.92997 L486,378.796904 L484,378.796904 L484,385.92997 Z M484,400.1961 L486,400.1961 L486,393.063035 L484,393.063035 L484,400.1961 Z M484,415 L486,415 L486,407.329166 L484,407.329166 L484,415 Z" id="Fill-11" fill="#FFFFFF"></path>
                            <path d="M584,455 L590.44049,455 L590.44049,453 L584,453 L584,455 Z M597.595844,455 L604.751944,455 L604.751944,453 L597.595844,453 L597.595844,455 Z M611.908045,455 L619.064145,455 L619.064145,453 L611.908045,453 L611.908045,455 Z M626.220245,455 L633.376345,455 L633.376345,453 L626.220245,453 L626.220245,455 Z M640.531699,455 L647.687053,455 L647.687053,453 L640.531699,453 L640.531699,455 Z M654.843154,455 L662,455 L662,453 L654.843154,453 L654.843154,455 Z" id="Fill-12" fill="#FFFFFF"></path>
                            <path d="M604,426.153916 L605.886764,426.153916 L605.886764,419.078434 L604,419.078434 L604,426.153916 Z M605.886764,412 L604,412.002951 L604,412 L605.886764,412 Z M607.961687,439.6084 L606.236519,440.37202 C605.289817,438.236095 604.63753,435.868502 604.293677,433.334166 L606.163469,433.081101 C606.48371,435.439103 607.088035,437.635528 607.961687,439.6084 L607.961687,439.6084 Z M617,449.353973 L616.077648,451 C613.859575,449.757548 611.909354,448.244325 610.281587,446.503859 L611.659212,445.215664 C613.154898,446.813734 614.95164,448.206697 617,449.353973 L617,449.353973 Z" id="Fill-13" fill="#FFFFFF"></path>
                            <path d="M637.718056,461.495403 L636.340353,462.784336 C634.844582,461.186266 633.047738,459.793303 631,458.646027 L631.922404,457 C634.139127,458.242452 636.090197,459.755675 637.718056,461.495403 L637.718056,461.495403 Z M643.706306,474.665834 L641.836408,474.918899 C641.516149,472.560159 640.91179,470.364472 640.038826,468.3916 L641.763354,467.62798 C642.709372,469.763167 643.362434,472.131498 643.706306,474.665834 L643.706306,474.665834 Z M644,495.996311 L644,496 L642.113129,496 L644,495.996311 Z M642.113129,488.920829 L644,488.920829 L644,481.845346 L642.113129,481.845346 L642.113129,488.920829 Z" id="Fill-14" fill="#FFFFFF"></path>
                            <path d="M459.166853,278.796724 C458.848916,281.065593 458.828718,283.403284 459.107754,285.700579 L459.111494,285.733493 L457.213602,285.970629 L457.207617,285.923501 C456.911376,283.47809 456.931574,280.964605 457.271953,278.531163 L459.166853,278.796724 Z M464.25832,298.493169 L462.73073,299.645931 C461.230071,297.656089 459.997227,295.477735 459.067357,293.171463 L460.841815,292.455569 C461.708846,294.606992 462.858653,296.637978 464.25832,298.493169 L464.25832,298.493169 Z M464.549325,266.133549 C463.11749,267.96555 461.931027,269.977834 461.022852,272.110556 L459.262607,271.362495 C460.236614,269.074924 461.507611,266.919761 463.041934,264.956101 L464.549325,266.133549 Z M475.100319,306.970944 L474.350737,308.731131 C472.063093,307.756408 469.90786,306.483956 467.944884,304.948935 L469.124614,303.44234 C470.955927,304.874129 472.966032,306.061302 475.100319,306.970944 L475.100319,306.970944 Z M475.531964,257.846529 C473.381967,258.71428 471.350916,259.865546 469.496413,261.265168 L468.343613,259.738376 C470.332024,258.237017 472.5097,257.003465 474.816046,256.072877 L475.531964,257.846529 Z M488.962337,310.786055 L488.924185,310.791291 C487.781859,310.928934 486.615594,311 485.464291,311 C484.147661,311 482.81981,310.907989 481.518142,310.724714 L481.783712,308.829875 C482.997854,309.000433 484.235935,309.087208 485.464291,309.087208 C486.538541,309.087208 487.627005,309.020631 488.700507,308.891216 L488.962337,310.786055 Z M489.506195,254.279027 L489.238381,256.172369 C488.016757,255.999567 486.770448,255.912044 485.533115,255.912044 C484.461109,255.912044 483.371897,255.977873 482.298394,256.108036 L482.250517,256.115516 L482.018611,254.21619 L482.066488,254.210205 C483.217791,254.06957 484.384056,254 485.533115,254 C486.860218,254 488.197046,254.093508 489.506195,254.279027 L489.506195,254.279027 Z M502.63509,305.275838 C500.645183,306.7757 498.466759,308.007756 496.159665,308.9361 L495.445243,307.161699 C497.595988,306.295445 499.628536,305.147171 501.483787,303.748297 L502.63509,305.275838 Z M503.073468,260.066026 L501.892989,261.572621 C500.063921,260.13784 498.053068,258.948423 495.920277,258.038033 L496.671355,256.278594 C498.957503,257.254813 501.112737,258.528761 503.073468,260.066026 L503.073468,260.066026 Z M511.726569,293.659947 C510.751814,295.94677 509.477825,298.101185 507.942006,300.063349 L506.436111,298.885153 C507.869442,297.053152 509.056653,295.043112 509.967073,292.909642 L511.726569,293.659947 Z M511.94127,271.852475 L510.166063,272.565377 C509.301277,270.413205 508.153714,268.380724 506.755543,266.525533 L508.283881,265.374267 C509.783044,267.365605 511.013644,269.545455 511.94127,271.852475 L511.94127,271.852475 Z M514,282.534037 C514,283.856609 513.907986,285.187409 513.723957,286.493523 L511.829057,286.226466 C512.149985,283.950116 512.170932,281.606441 511.891148,279.297925 L512.83972,279.170755 L513.789788,279.063782 C513.92968,280.21804 514,281.384267 514,282.534037 L514,282.534037 Z" id="Fill-18" fill="#FFFFFF"></path>
                            <polygon id="Fill-19" fill="#FFFFFF" points="454 284 458 284 458 282 454 282"></polygon>
                            <path d="M424,284 L432.333959,284 L432.333959,282 L424,282 L424,284 Z M440.66698,284 L449,284 L449,282 L440.66698,282 L440.66698,284 Z" id="Fill-20" fill="#FFFFFF"></path>
                            <polygon id="Fill-22" fill="#FFFFFF" points="484 256 486 256 486 252 484 252"></polygon>
                            <path d="M484,245 L486,245 L486,238.333333 L484,238.333333 L484,245 Z M484,231.666667 L486,231.666667 L486,225 L484,225 L484,231.666667 Z" id="Fill-23" fill="#FFFFFF"></path>
                            <polygon id="Fill-24" fill="#FFFFFF" points="484 219 486 219 486 215 484 215"></polygon>
                            <polygon id="Fill-25" fill="#FFFFFF" points="512 284 516 284 516 282 512 282"></polygon>
                            <path d="M523,284 L529.666166,284 L529.666166,282 L523,282 L523,284 Z M536.332332,284 L543,284 L543,282 L536.332332,282 L536.332332,284 Z" id="Fill-26" fill="#FFFFFF"></path>
                            <polygon id="Fill-27" fill="#FFFFFF" points="549 284 553 284 553 282 549 282"></polygon>
                            <polygon id="Fill-28" fill="#FFFFFF" points="484 314 486 314 486 310 484 310"></polygon>
                            <path d="M484,340 L486,340 L486,333.333584 L484,333.333584 L484,340 Z M484,326.666416 L486,326.666416 L486,320 L484,320 L484,326.666416 Z" id="Fill-29" fill="#FFFFFF"></path>
                            <polygon id="Fill-30" fill="#FFFFFF" points="484 351 486 351 486 347 484 347"></polygon>
                            <polygon id="Fill-31" fill="#FFFFFF" points="525 582 527 582 527 575 525 575"></polygon>
                            <path d="M541,555.001776 L540.546509,553 C538.212218,553.667797 536.010164,554.773256 534,556.284076 L535.021971,558 C536.857495,556.619994 538.869097,555.610627 541,555.001776" id="Fill-32" fill="#FFFFFF"></path>
                            <path d="M531,562.116542 L529.453624,561 C527.923135,562.953404 526.761083,565.121835 526,567.441366 L527.844455,568 C528.540475,565.880967 529.60115,563.901411 531,562.116542" id="Fill-33" fill="#FFFFFF"></path>
                            <polygon id="Fill-34" fill="#FFFFFF" points="548 555 555 555 555 553 548 553"></polygon>
                            <polygon id="Fill-35" fill="#FFFFFF" points="563 555 570 555 570 553 563 553"></polygon>
                            <polygon id="Fill-36" fill="#FFFFFF" points="575 555 582 555 582 553 575 553"></polygon>
                            <polygon id="Fill-37" fill="#FFFFFF" points="525 611 527 611 527 604 525 604"></polygon>
                            <polygon id="Fill-38" fill="#FFFFFF" points="525 597 527 597 527 590 525 590"></polygon>
                            <polygon id="Fill-39" fill="#FFFFFF" points="642 532 644 532 644 525 642 525"></polygon>
                            <path d="M627,551.998224 L627.453491,554 C629.787782,553.332203 631.989836,552.226744 634,550.715924 L632.978029,549 C631.142505,550.380006 629.130903,551.389373 627,551.998224" id="Fill-40" fill="#FFFFFF"></path>
                            <path d="M638,544.883458 L639.546376,546 C641.076865,544.046596 642.238917,541.878165 643,539.558634 L641.155545,539 C640.459525,541.119033 639.39885,543.098589 638,544.883458" id="Fill-41" fill="#FFFFFF"></path>
                            <polygon id="Fill-42" fill="#FFFFFF" points="613 555 620 555 620 553 613 553"></polygon>
                            <polygon id="Fill-43" fill="#FFFFFF" points="599 555 606 555 606 553 599 553"></polygon>
                            <polygon id="Fill-44" fill="#FFFFFF" points="587 555 594 555 594 553 587 553"></polygon>
                            <polygon id="Fill-45" fill="#FFFFFF" points="642 503 644 503 644 496 642 496"></polygon>
                            <polygon id="Fill-46" fill="#FFFFFF" points="642 517 644 517 644 510 642 510"></polygon>
                            <path d="M621,314.001776 L620.546509,312 C618.212218,312.667797 616.010164,313.773256 614,315.284076 L615.021971,317 C616.857495,315.619994 618.869097,314.610627 621,314.001776" id="Fill-47" fill="#FFFFFF"></path>
                            <path d="M610,321.116542 L608.453624,320 C606.923135,321.953404 605.761083,324.121835 605,326.441366 L606.844455,327 C607.540475,324.880967 608.60115,322.901411 610,321.116542" id="Fill-48" fill="#FFFFFF"></path>
                            <polygon id="Fill-49" fill="#FFFFFF" points="628 314 635 314 635 312 628 312"></polygon>
                            <polygon id="Fill-50" fill="#FFFFFF" points="642 314 649 314 649 312 642 312"></polygon>
                            <path d="M299.881324,374.902606 L307,374.902606 L307,373 L299.881324,373 L299.881324,374.902606 Z M294.966543,466 L302.085219,466 L302.085219,464.097394 L294.966543,464.097394 L294.966543,466 Z M285.644716,374.902606 L292.762649,374.902606 L292.762649,373 L285.644716,373 L285.644716,374.902606 Z M280.729935,466 L287.84861,466 L287.84861,464.097394 L280.729935,464.097394 L280.729935,466 Z M271.336104,373.066967 C271.908418,373.023066 272.491126,373 273.067894,373 L278.525298,373 L278.525298,374.901862 L273.067894,374.901862 C272.540117,374.901862 272.007145,374.924184 271.483079,374.962876 L271.336104,373.066967 Z M266.309977,464.94341 L266.890457,463.131582 C268.879827,463.772232 270.958272,464.097394 273.067894,464.097394 L273.611259,464.097394 L273.611259,466 L273.067894,466 C270.76082,466 268.487149,465.644331 266.309977,464.94341 L266.309977,464.94341 Z M257.984319,378.974197 C259.805186,377.263563 261.882146,375.886276 264.156559,374.878795 L264.923357,376.618448 C262.844912,377.539616 260.946846,378.798595 259.281863,380.36339 L257.984319,378.974197 Z M254.676621,456.108979 L256.258467,455.056854 C257.517411,456.956483 259.076987,458.618752 260.891916,459.99976 L259.745059,461.515446 C257.760144,460.006457 256.055076,458.187187 254.676621,456.108979 L254.676621,456.108979 Z M251.227887,391.939002 C251.582707,389.465688 252.348763,387.090593 253.503784,384.877707 L255.185841,385.759439 C254.13103,387.781097 253.431039,389.950827 253.106653,392.209102 L251.227887,391.939002 Z M251,406.333923 L252.899551,406.333923 L252.899551,399.198221 L251,399.198221 L251,406.333923 Z M251,420.605327 L252.899551,420.605327 L252.899551,413.469625 L251,413.469625 L251,420.605327 Z M251,434.876731 L252.899551,434.876731 L252.899551,427.741029 L251,427.741029 L251,434.876731 Z M251,443.880068 L251,442.012433 L252.899551,442.012433 L252.899551,443.880068 C252.899551,445.565403 253.106653,447.241065 253.515661,448.858689 L251.674752,449.325226 C251.227887,447.555066 251,445.722403 251,443.880068 L251,443.880068 Z" id="Fill-51" fill="#FFFFFF"></path>
                            <path d="M360.699606,362 C361.866679,359.887355 362.640728,357.61985 363,355.259996 L361.101631,355 C360.773861,357.156688 360.066567,359.228131 359,361.157499 L360.699606,362 Z" id="Fill-52" fill="#FFFFFF"></path>
                            <path d="M349.774283,372 C352.067929,371.081411 354.162388,369.824966 356,368.265265 L354.691057,367 C353.011446,368.425373 351.096705,369.574627 349,370.413161 L349.774283,372 Z" id="Fill-53" fill="#FFFFFF"></path>
                            <polygon id="Fill-54" fill="#FFFFFF" points="322 375 329 375 329 373 322 373"></polygon>
                            <path d="M341.313958,373.062879 L336,373.062879 L336,375 L341.313958,375 C341.87549,375 342.442804,374.975758 343,374.931818 L342.856907,373 C342.347409,373.041667 341.827793,373.062879 341.313958,373.062879" id="Fill-55" fill="#FFFFFF"></path>
                            <polygon id="Fill-56" fill="#FFFFFF" points="307 375 314 375 314 373 307 373"></polygon>
                            <polygon id="Fill-57" fill="#FFFFFF" points="362 348 364 348 364 341 362 341"></polygon>
                            <polygon id="Fill-58" fill="#FFFFFF" points="396 284 403 284 403 282 396 282"></polygon>
                            <path d="M382,282.068208 L382.143093,284 C382.651869,283.958318 383.170762,283.937097 383.686042,283.937097 L389,283.937097 L389,282 L383.686042,282 C383.123064,282 382.555751,282.021978 382,282.068208" id="Fill-59" fill="#FFFFFF"></path>
                            <polygon id="Fill-60" fill="#FFFFFF" points="410 284 419 284 419 282 410 282"></polygon>
                            <path d="M363.898369,301 C364.226889,298.842821 364.933433,296.771588 366,294.841705 L364.300394,294 C363.133321,296.11172 362.359272,298.379706 362,300.740741 L363.898369,301 Z" id="Fill-61" fill="#FFFFFF"></path>
                            <path d="M369,287.7344 L370.309692,289 C371.989303,287.575014 373.904044,286.426072 376,285.587086 L375.225717,284 C372.932071,284.919018 370.837612,286.174444 369,287.7344" id="Fill-62" fill="#FFFFFF"></path>
                            <polygon id="Fill-63" fill="#FFFFFF" points="362 315 364 315 364 308 362 308"></polygon>
                            <polygon id="Fill-64" fill="#FFFFFF" points="362.000782 328.00037 362.000782 334 364 334 364 328.00037 363.998437 328.00037 363.998437 322 362 322 362 328.00037"></polygon>
                            <path d="M609.300075,203 C608.132783,205.112645 607.35859,207.38015 607,209.740004 L608.898725,210 C609.226557,207.843312 609.933983,205.771869 611,203.842501 L609.300075,203 Z" id="Fill-65" fill="#FFFFFF"></path>
                            <path d="M620.225717,193 C617.932071,193.918589 615.838361,195.175034 614,196.734735 L615.309692,198 C616.989303,196.574627 618.903295,195.425373 621,194.586839 L620.225717,193 Z" id="Fill-66" fill="#FFFFFF"></path>
                            <polygon id="Fill-67" fill="#FFFFFF" points="640 193 647 193 647 191 640 191"></polygon>
                            <path d="M628.685319,192.937121 L634,192.937121 L634,191 L628.685319,191 C628.12451,191 627.556473,191.024242 627,191.068182 L627.14237,193 C627.651869,192.958333 628.171485,192.937121 628.685319,192.937121" id="Fill-68" fill="#FFFFFF"></path>
                            <polygon id="Fill-69" fill="#FFFFFF" points="652 193 659 193 659 191 652 191"></polygon>
                            <polygon id="Fill-70" fill="#FFFFFF" points="664 193 671 193 671 191 664 191"></polygon>
                            <polygon id="Fill-71" fill="#FFFFFF" points="607 224 609 224 609 217 607 217"></polygon>
                            <polygon id="Fill-72" fill="#FFFFFF" points="567 284 574 284 574 282 567 282"></polygon>
                            <path d="M588,283.931792 L587.856907,282 C587.348131,282.041682 586.829238,282.062903 586.313958,282.062903 L581,282.062903 L581,284 L586.313958,284 C586.876936,284 587.444249,283.978022 588,283.931792" id="Fill-73" fill="#FFFFFF"></path>
                            <polygon id="Fill-74" fill="#FFFFFF" points="553 284 560 284 560 282 553 282"></polygon>
                            <path d="M607.102026,264 C606.773443,266.157398 606.066767,268.228841 605,270.15892 L606.699925,271 C607.867967,268.888776 608.64141,266.62056 609,264.259286 L607.102026,264 Z" id="Fill-75" fill="#FFFFFF"></path>
                            <path d="M602,277.2656 L600.691057,276 C599.010697,277.424986 597.095956,278.573928 595,279.412914 L595.774283,281 C598.06718,280.080982 600.162388,278.825556 602,277.2656" id="Fill-76" fill="#FFFFFF"></path>
                            <polygon id="Fill-77" fill="#FFFFFF" points="607 257 609 257 609 250 607 250"></polygon>
                            <polygon id="Fill-78" fill="#FFFFFF" points="608.999218 236.99963 608.999218 231 607 231 607 236.99963 607.000782 236.99963 607.000782 243 609 243 609 236.99963"></polygon>
                            <path d="M423,557.300075 C420.887355,556.132783 418.619139,555.35859 416.259286,555 L416,556.897974 C418.156688,557.225806 420.228131,557.933983 422.157499,559 L423,557.300075 Z" id="Fill-79" fill="#FFFFFF"></path>
                            <path d="M433,568.225717 C432.081536,565.932071 430.825261,563.837612 429.26645,562 L428,563.309692 C429.425858,564.989303 430.574278,566.903295 431.413377,569 L433,568.225717 Z" id="Fill-80" fill="#FFFFFF"></path>
                            <polygon id="Fill-81" fill="#FFFFFF" points="433 597 435 597 435 590 433 590"></polygon>
                            <path d="M433.062855,576.686042 L433.062855,582 L435,582 L435,576.686042 C435,576.125232 434.975767,575.557196 434.931087,575 L433,575.143093 C433.041651,575.652591 433.062855,576.172207 433.062855,576.686042" id="Fill-82" fill="#FFFFFF"></path>
                            <polygon id="Fill-83" fill="#FFFFFF" points="433 611 435 611 435 604 433 604"></polygon>
                            <polygon id="Fill-84" fill="#FFFFFF" points="402 557 409 557 409 555 402 555"></polygon>
                            <polygon id="Fill-85" fill="#FFFFFF" points="342 522 344 522 344 515 342 515"></polygon>
                            <polygon id="Fill-85-Copy" fill="#FFFFFF" points="342 509 344 509 344 502 342 502"></polygon>
                            <polygon id="Fill-85-Copy-2" fill="#FFFFFF" points="342 495 344 495 344 488 342 488"></polygon>
                            <polygon id="Fill-85-Copy-3" fill="#FFFFFF" points="342 482 344 482 344 475 342 475"></polygon>
                            <path d="M342.068182,536 L344,535.856907 C343.957576,535.348131 343.936364,534.829238 343.936364,534.313236 L343.936364,529 L342,529 L342,534.313236 C342,534.876213 342.022727,535.443527 342.068182,536" id="Fill-86" fill="#FFFFFF"></path>
                            <path d="M361,555.102026 C358.843312,554.773443 356.771159,554.066017 354.84179,553 L354,554.699925 C356.111934,555.867217 358.37944,556.64141 360.740714,557 L361,555.102026 Z" id="Fill-88" fill="#FFFFFF"></path>
                            <path d="M347.7344,550 L349,548.690448 C347.574335,547.011017 346.426072,545.095732 345.587086,543 L344,543.774949 C344.919018,546.067601 346.174444,548.162584 347.7344,550" id="Fill-89" fill="#FFFFFF"></path>
                            <polygon id="Fill-90" fill="#FFFFFF" points="368 557 375 557 375 555 368 555"></polygon>
                            <polygon id="Fill-91" fill="#FFFFFF" points="389.00037 556.999218 395 556.999218 395 555 389.00037 555 389.00037 555.000782 383 555.000782 383 557 389.00037 557"></polygon>
                            <polygon id="Fill-94" fill="#FFFFFF" points="343 481 344 481 344 477 343 477"></polygon>
                            <polygon id="Fill-95" fill="#FFFFFF" points="343 495 344 495 344 488 343 488"></polygon>
                            <path d="M337.444774,465 L344.555968,465 L344.555968,464 L337.444774,464 L337.444774,465 Z M323.222387,465 L330.334322,465 L330.334322,464 L323.222387,464 L323.222387,465 Z M309,465 L316.111194,465 L316.111194,464 L309,464 L309,465 Z" id="Fill-100" fill="#FFFFFF"></path>
                            <path d="M337.444774,465 L344.555968,465 L344.555968,464 L337.444774,464 L337.444774,465 Z M323.222387,465 L330.334322,465 L330.334322,464 L323.222387,464 L323.222387,465 Z M309,465 L316.111194,465 L316.111194,464 L309,464 L309,465 Z" id="Stroke-101" stroke="#FFFFFF" stroke-width="0.75"></path>
                            <path d="M732.33765,452.787885 L732.385014,453.97257 C731.923959,453.990362 731.457724,454 730.99889,454 L730.99889,452.815316 C731.441443,452.815316 731.892137,452.805678 732.33765,452.787885 L732.33765,452.787885 Z M745.731175,449.325019 L746.262535,450.383673 C744.112673,451.467533 741.842923,452.321573 739.515449,452.922812 L739.219426,451.775937 C741.465495,451.195456 743.656059,450.370328 745.731175,449.325019 L745.731175,449.325019 Z M756.503423,440.630413 L757.422572,441.375474 C755.908418,443.247394 754.190749,444.962147 752.319149,446.473028 L751.577613,445.550783 C753.384089,444.092538 755.042553,442.436353 756.503423,440.630413 L756.503423,440.630413 Z M762.755412,428.265361 L763.899537,428.564127 C763.292692,430.894204 762.432747,433.166456 761.344866,435.317867 L760.290287,434.781867 C761.339685,432.706075 762.170028,430.513889 762.755412,428.265361 L762.755412,428.265361 Z M764.521184,414.221142 C764.838668,416.09751 765,418.021325 765,419.93995 C765,420.432951 764.988899,420.931883 764.968178,421.424883 L763.785569,421.37373 C763.80555,420.89778 763.816651,420.4159 763.816651,419.93995 C763.816651,418.087305 763.66124,416.229471 763.356337,414.417601 L764.521184,414.221142 Z M697.755597,412.762156 L698.913043,413.011251 C698.428307,415.273124 698.182609,417.605425 698.182609,419.93995 L697,419.93995 C697,417.522393 697.254579,415.106319 697.755597,412.762156 L697.755597,412.762156 Z M759.190564,400.895295 C760.538945,402.893245 761.675671,405.038725 762.568918,407.270943 L761.471415,407.711308 C760.608511,405.557673 759.511748,403.48707 758.210731,401.558066 L759.190564,400.895295 Z M703.6679,399.678732 L704.617391,400.38376 C703.233488,402.25568 702.046438,404.275871 701.090287,406.391697 L700.012766,405.903144 C701.0037,403.7117 702.233673,401.617374 703.6679,399.678732 L703.6679,399.678732 Z M748.852729,390.949283 C750.895282,392.214775 752.812026,393.702673 754.548936,395.373686 L753.728955,396.227727 C752.053469,394.614539 750.20333,393.178536 748.231082,391.956783 L748.852729,390.949283 Z M714.427567,390.194584 L715.00481,391.228773 C712.982239,392.362304 711.071415,393.715276 709.327845,395.25507 L708.546346,394.363961 C710.352821,392.771532 712.33173,391.368889 714.427567,390.194584 L714.427567,390.194584 Z M735.339315,386.156426 C737.728955,386.461864 740.088252,387.023811 742.352821,387.827439 L741.957632,388.943919 C739.772988,388.169203 737.495837,387.62579 735.189824,387.332214 L735.339315,386.156426 Z M728.135615,386 L728.234043,387.181719 C725.915449,387.375954 723.617576,387.81706 721.40333,388.494658 L721.057724,387.361127 C723.351896,386.659064 725.733395,386.201648 728.135615,386 L728.135615,386 Z" id="Fill-102" fill="#FFFFFF"></path>
                            <path d="M732.33765,452.787885 L732.385014,453.97257 C731.923959,453.990362 731.457724,454 730.99889,454 L730.99889,452.815316 C731.441443,452.815316 731.892137,452.805678 732.33765,452.787885 Z M745.731175,449.325019 L746.262535,450.383673 C744.112673,451.467533 741.842923,452.321573 739.515449,452.922812 L739.219426,451.775937 C741.465495,451.195456 743.656059,450.370328 745.731175,449.325019 Z M756.503423,440.630413 L757.422572,441.375474 C755.908418,443.247394 754.190749,444.962147 752.319149,446.473028 L751.577613,445.550783 C753.384089,444.092538 755.042553,442.436353 756.503423,440.630413 Z M762.755412,428.265361 L763.899537,428.564127 C763.292692,430.894204 762.432747,433.166456 761.344866,435.317867 L760.290287,434.781867 C761.339685,432.706075 762.170028,430.513889 762.755412,428.265361 Z M764.521184,414.221142 C764.838668,416.09751 765,418.021325 765,419.93995 C765,420.432951 764.988899,420.931883 764.968178,421.424883 L763.785569,421.37373 C763.80555,420.89778 763.816651,420.4159 763.816651,419.93995 C763.816651,418.087305 763.66124,416.229471 763.356337,414.417601 L764.521184,414.221142 Z M697.755597,412.762156 L698.913043,413.011251 C698.428307,415.273124 698.182609,417.605425 698.182609,419.93995 L697,419.93995 C697,417.522393 697.254579,415.106319 697.755597,412.762156 Z M759.190564,400.895295 C760.538945,402.893245 761.675671,405.038725 762.568918,407.270943 L761.471415,407.711308 C760.608511,405.557673 759.511748,403.48707 758.210731,401.558066 L759.190564,400.895295 Z M703.6679,399.678732 L704.617391,400.38376 C703.233488,402.25568 702.046438,404.275871 701.090287,406.391697 L700.012766,405.903144 C701.0037,403.7117 702.233673,401.617374 703.6679,399.678732 Z M748.852729,390.949283 C750.895282,392.214775 752.812026,393.702673 754.548936,395.373686 L753.728955,396.227727 C752.053469,394.614539 750.20333,393.178536 748.231082,391.956783 L748.852729,390.949283 Z M714.427567,390.194584 L715.00481,391.228773 C712.982239,392.362304 711.071415,393.715276 709.327845,395.25507 L708.546346,394.363961 C710.352821,392.771532 712.33173,391.368889 714.427567,390.194584 Z M735.339315,386.156426 C737.728955,386.461864 740.088252,387.023811 742.352821,387.827439 L741.957632,388.943919 C739.772988,388.169203 737.495837,387.62579 735.189824,387.332214 L735.339315,386.156426 Z M728.135615,386 L728.234043,387.181719 C725.915449,387.375954 723.617576,387.81706 721.40333,388.494658 L721.057724,387.361127 C723.351896,386.659064 725.733395,386.201648 728.135615,386 Z" id="Stroke-103" stroke="#FFFFFF" stroke-width="0.75"></path>
                            <polygon id="Fill-104" fill="#FFFFFF" points="697 470 698 470 698 465 697 465"></polygon>
                            <polygon id="Fill-105" fill="#FFFFFF" points="697 484 698 484 698 477 697 477"></polygon>
                            <polygon id="Fill-106" fill="#FFFFFF" points="697 440 698 440 698 434 697 434"></polygon>
                            <polygon id="Stroke-107" stroke="#FFFFFF" stroke-width="0.5" points="697 440 698 440 698 434 697 434"></polygon>
                            <polygon id="Fill-108" fill="#FFFFFF" points="697 427 698 427 698 420 697 420"></polygon>
                            <polygon id="Stroke-109" stroke="#FFFFFF" stroke-width="0.5" points="697 427 698 427 698 420 697 420"></polygon>
                            <path d="M723.888724,454 L731,454 L731,453 L723.888724,453 L723.888724,454 Z M709.666914,454 L716.77819,454 L716.77819,453 L709.666914,453 L709.666914,454 Z M695.444362,454 L702.555638,454 L702.555638,453 L695.444362,453 L695.444362,454 Z M681.222552,454 L688.334569,454 L688.334569,453 L681.222552,453 L681.222552,454 Z M667,454 L674.111276,454 L674.111276,453 L667,453 L667,454 Z" id="Fill-110" fill="#FFFFFF"></path>
                            <path d="M723.888724,454 L731,454 L731,453 L723.888724,453 L723.888724,454 Z M709.666914,454 L716.77819,454 L716.77819,453 L709.666914,453 L709.666914,454 Z M695.444362,454 L702.555638,454 L702.555638,453 L695.444362,453 L695.444362,454 Z M681.222552,454 L688.334569,454 L688.334569,453 L681.222552,453 L681.222552,454 Z M667,454 L674.111276,454 L674.111276,453 L667,453 L667,454 Z" id="Stroke-111" stroke="#FFFFFF" stroke-width="0.5"></path>
                            <polygon id="Fill-112" fill="#FFFFFF" points="486 174 494 174 494 172 486 172"></polygon>
                            <polygon id="Fill-113" fill="#FFFFFF" points="472 174 479 174 479 172 472 172"></polygon>
                            <polygon id="Fill-114" fill="#FFFFFF" points="443 174 450 174 450 172 443 172"></polygon>
                            <polygon id="Fill-115" fill="#FFFFFF" points="457 174 460 174 460 172 457 172"></polygon>
                            <polygon id="Fill-116" fill="#FFFFFF" points="429 174 436 174 436 172 429 172"></polygon>
                            <path d="M484.119968,207.905189 L486,207.905189 L486,200.813335 L484.119968,200.813335 L484.119968,207.905189 Z M484.119968,215 L486,214.997042 L486,215 L484.119968,215 Z M482.053991,187.327721 L483.772332,186.562333 C484.714552,188.702461 485.365728,191.075533 485.70822,193.616472 L483.844358,193.870862 C483.526854,191.505925 482.923451,189.305158 482.053991,187.327721 L482.053991,187.327721 Z M473.051447,177.561078 L473.970149,175.910503 C476.178709,177.15509 478.121212,178.671815 479.743272,180.416307 L478.371099,181.707483 C476.881332,180.105715 475.090966,178.711008 473.051447,177.561078 L473.051447,177.561078 Z M460,173.890914 L460.024254,172 C460.152872,172.001479 463.216192,172.052505 467.234962,173.166199 L466.735188,174.98834 C462.96557,173.944159 460.028664,173.890914 460,173.890914 L460,173.890914 Z" id="Fill-117" fill="#FFFFFF"></path>
                            <path d="M367,174 L374.130736,174 L374.130736,172 L367,172 L367,174 Z M381.262216,174 L388.39444,174 L388.39444,172 L381.262216,172 L381.262216,174 Z M395.525919,174 L402.656656,174 L402.656656,172 L395.525919,172 L395.525919,174 Z M409.787392,174 L416.918872,174 L416.918872,172 L409.787392,172 L409.787392,174 Z M424.050351,174 L429,174 L429,172 L424.050351,172 L424.050351,174 Z" id="Fill-118" fill="#FFFFFF"></path>
                            <polygon id="Fill-119" fill="#FFFFFF" points="366 191 368 191 368 184 366 184"></polygon>
                            <polygon id="Fill-120" fill="#FFFFFF" points="366 203 368 203 368 198 366 198"></polygon>
                            <polygon id="Fill-121" fill="#FFFFFF" points="366 162 368 162 368 155 366 155"></polygon>
                            <polygon id="Fill-122" fill="#FFFFFF" points="366 176 368 176 368 169 366 169"></polygon>
                            <polygon id="Fill-123" fill="#FFFFFF" points="366 148 368 148 368 143 366 143"></polygon>
                            <path d="M604,343.102202 L606,343.102202 L606,336 L604,336 L604,343.102202 Z M604,357.308086 L606,357.308086 L606,350.205144 L604,350.205144 L604,357.308086 Z M604,371.51397 L606,371.51397 L606,364.411028 L604,364.411028 L604,371.51397 Z M604,385.719114 L606,385.719114 L606,378.616172 L604,378.616172 L604,385.719114 Z M604,399.924998 L606,399.924998 L606,392.822056 L604,392.822056 L604,399.924998 Z M604,412 L606,412 L606,407.0272 L604,407.0272 L604,412 Z" id="Fill-124" fill="#FFFFFF"></path>
                            <path d="M728.826095,314 L736,314 L736,312 L728.826095,312 L728.826095,314 Z M714.476789,314 L721.651442,314 L721.651442,312 L714.476789,312 L714.476789,314 Z M700.127483,314 L707.302136,314 L707.302136,312 L700.127483,312 L700.127483,314 Z M685.778925,314 L692.953578,314 L692.953578,312 L685.778925,312 L685.778925,314 Z M671.429619,314 L678.604272,314 L678.604272,312 L671.429619,312 L671.429619,314 Z M656,314 L664.254966,314 L664.254966,312 L656,312 L656,314 Z" id="Fill-125" fill="#FFFFFF"></path>
                            <path d="M260,331.998224 L260.453491,334 C262.787782,333.332203 264.989836,332.226744 267,330.715924 L265.978029,329 C264.142505,330.380006 262.130903,331.389373 260,331.998224" id="Fill-128" fill="#FFFFFF"></path>
                            <path d="M271,323.883458 L272.546376,325 C274.076865,323.046596 275.238917,320.878165 276,318.558634 L274.155545,318 C273.459525,320.119033 272.39885,322.098589 271,323.883458" id="Fill-129" fill="#FFFFFF"></path>
                            <polygon id="Fill-130" fill="#FFFFFF" points="246 334 253 334 253 332 246 332"></polygon>
                            <polygon id="Fill-131" fill="#FFFFFF" points="231 334 238 334 238 332 231 332"></polygon>
                            <polygon id="Fill-132" fill="#FFFFFF" points="275 282 277 282 277 275 275 275"></polygon>
                            <polygon id="Fill-133" fill="#FFFFFF" points="275 297 277 297 277 290 275 290"></polygon>
                            <path d="M145,334 L152.173905,334 L152.173905,332 L145,332 L145,334 Z M159.348558,334 L166.523211,334 L166.523211,332 L159.348558,332 L159.348558,334 Z M173.698612,334 L180.873265,334 L180.873265,332 L173.698612,332 L173.698612,334 Z M188.046422,334 L195.221075,334 L195.221075,332 L188.046422,332 L188.046422,334 Z M202.395728,334 L209.570381,334 L209.570381,332 L202.395728,332 L202.395728,334 Z M216.745034,334 L225,334 L225,332 L216.745034,332 L216.745034,334 Z" id="Fill-134" fill="#FFFFFF"></path>
                            <path d="M696,497.102132 L698,497.102132 L698,490 L696,490 L696,497.102132 Z M696,511.307878 L698,511.307878 L698,504.205005 L696,504.205005 L696,511.307878 Z M696,525.514365 L698,525.514365 L698,518.411492 L696,518.411492 L696,525.514365 Z M696,539.71937 L698,539.71937 L698,532.616497 L696,532.616497 L696,539.71937 Z M696,553.924375 L698,553.924375 L698,546.821502 L696,546.821502 L696,553.924375 Z M696,566 L698,566 L698,561.027248 L696,561.027248 L696,566 Z" id="Fill-139" fill="#FFFFFF"></path>
                            <polygon id="Fill-140" fill="#FFFFFF" points="560 446 575 446 575 444 560 444"></polygon>
                            <polygon id="Fill-141" fill="#FFFFFF" points="560 449 575 449 575 447 560 447"></polygon>
                            <polygon id="Fill-142" fill="#FFFFFF" points="560 452 575 452 575 450 560 450"></polygon>
                            <polygon id="Fill-143" fill="#FFFFFF" points="560 455 575 455 575 453 560 453"></polygon>
                            <polygon id="Fill-144" fill="#FFFFFF" points="560 458 575 458 575 456 560 456"></polygon>
                            <polygon id="Fill-145" fill="#FFFFFF" points="560 461 575 461 575 459 560 459"></polygon>
                            <polygon id="Fill-146" fill="#FFFFFF" points="560 464 575 464 575 462 560 462"></polygon>
                            <polygon id="Fill-147" fill="#FFFFFF" points="561 151 563 151 563 144 561 144"></polygon>
                            <path d="M546,170.998224 L546.453491,173 C548.787782,172.332203 550.989836,171.226744 553,169.715924 L551.978029,168 C550.142505,169.380006 548.130903,170.389373 546,170.998224" id="Fill-148" fill="#FFFFFF"></path>
                            <path d="M557,163.883458 L558.546376,165 C560.076865,163.046596 561.238917,160.878165 562,158.558634 L560.155545,158 C559.459525,160.119033 558.39885,162.098589 557,163.883458" id="Fill-149" fill="#FFFFFF"></path>
                            <polygon id="Fill-150" fill="#FFFFFF" points="532 174 539 174 539 172 532 172"></polygon>
                            <polygon id="Fill-151" fill="#FFFFFF" points="517 174 524 174 524 172 517 172"></polygon>
                            <polygon id="Fill-152" fill="#FFFFFF" points="503 174 511 174 511 172 503 172"></polygon>
                            <polygon id="Fill-153" fill="#FFFFFF" points="561 122 563 122 563 115 561 115"></polygon>
                            <polygon id="Fill-154" fill="#FFFFFF" points="561 136 563 136 563 129 561 129"></polygon>
                            <polygon id="Fill-155" fill="#FFFFFF" points="509 455 517 455 517 453 509 453"></polygon>
                            <path d="M487.001638,438 L485,438.453537 C485.666964,440.788069 486.772369,442.990348 488.284204,445 L490,443.978643 C488.620664,442.14293 487.61054,440.131122 487.001638,438" id="Fill-156" fill="#FFFFFF"></path>
                            <path d="M495.275562,449 L494,450.54562 C496.232807,452.076865 498.710473,453.23816 501.361836,454 L502,452.155545 C499.578192,451.459525 497.316308,450.39885 495.275562,449" id="Fill-157" fill="#FFFFFF"></path>
                            <polygon id="Fill-158" fill="#FFFFFF" points="485 431 487 431 487 424 485 424"></polygon>
                            <polygon id="Fill-159" fill="#FFFFFF" points="540 455 548 455 548 453 540 453"></polygon>
                            <polygon id="Fill-160" fill="#FFFFFF" points="525 455 533 455 533 453 525 453"></polygon>
                            <polygon id="Fill-163" fill="#FFFFFF" points="677 193 684 193 684 191 677 191"></polygon>
                            <path d="M696.313958,191.062098 L691,191.062098 L691,193 L696.313958,193 C696.874768,193 697.442804,192.975767 698,192.930329 L697.856907,191 C697.347409,191.041651 696.827793,191.062098 696.313958,191.062098" id="Fill-164" fill="#FFFFFF"></path>
                            <path d="M356,254.700244 C353.886859,255.867755 351.619584,256.642093 349.259259,257 L349,255.101669 C351.157179,254.773776 353.228412,254.066216 355.156875,253 L356,254.700244 Z" id="Fill-174" fill="#FFFFFF"></path>
                            <path d="M365,243.775032 C364.081536,246.068678 362.825939,248.162388 361.26645,250 L360,248.690308 C361.425858,247.010697 362.574278,245.096705 363.413377,243 L365,243.775032 Z" id="Fill-175" fill="#FFFFFF"></path>
                            <polygon id="Fill-176" fill="#FFFFFF" points="366 222 368 222 368 215 366 215"></polygon>
                            <path d="M366.062098,234.313784 L366.062098,229 L368,229 L368,234.313784 C368,234.875374 367.975767,235.442747 367.930329,236 L366,235.857615 C366.041651,235.347341 366.062098,234.828394 366.062098,234.313784" id="Fill-177" fill="#FFFFFF"></path>
                            <polygon id="Fill-178" fill="#FFFFFF" points="366 208 368 208 368 201 366 201"></polygon>
                            <polygon id="Fill-179" fill="#FFFFFF" points="334 257 341 257 341 255 334 255"></polygon>
                            <polygon id="Fill-180" fill="#FFFFFF" points="275 297 277 297 277 290 275 290"></polygon>
                            <path d="M275.068156,276 L277,276.143093 C276.956835,276.651869 276.936388,277.170762 276.936388,277.687487 L276.936388,283 L275,283 L275,277.687487 C275,277.12451 275.023476,276.556473 275.068156,276" id="Fill-181" fill="#FFFFFF"></path>
                            <polygon id="Fill-182" fill="#FFFFFF" points="275 311 277 311 277 304 275 304"></polygon>
                            <path d="M294,256.897619 C291.844023,257.226889 289.771159,257.934183 287.842501,259 L287,257.299644 C289.111934,256.133321 291.38015,255.358522 293.740714,255 L294,256.897619 Z" id="Fill-183" fill="#FFFFFF"></path>
                            <path d="M280.734907,262 L282,263.308943 C280.57482,264.989303 279.425722,266.904044 278.587302,269 L277,268.224968 C277.919821,265.932071 279.174061,263.836864 280.734907,262" id="Fill-184" fill="#FFFFFF"></path>
                            <polygon id="Fill-185" fill="#FFFFFF" points="301 257 308 257 308 255 301 255"></polygon>
                            <polygon id="Fill-186" fill="#FFFFFF" points="321 255 327 255 327 257 321 257 321 256.999218 315 256.999218 315 255"></polygon>
                            <polygon id="Fill-198" fill="#FFFFFF" points="366 129 368 129 368 122 366 122"></polygon>
                            <polygon id="Fill-200" fill="#FFFFFF" points="366 144 368 144 368 137 366 137"></polygon>
                        </g>
                        <g id="Group-209-Copy" transform="translate(0.000000, 260.000000)">
                            <mask id="mask-6" fill="white">
                                <use xlink:href="#path-5"></use>
                            </mask>
                            <g id="Mask"></g>
                            <g mask="url(#mask-6)">
                                <g transform="translate(63.000000, 559.500000) scale(-1, -1) rotate(90.000000) translate(-63.000000, -559.500000) translate(-486.500000, 220.500000)">
                                    <g id="Group-3" stroke="none" stroke-width="1" fill="none" fill-rule="evenodd">
                                        <path d="M467.241337,283.056594 C467.241337,273.197342 475.257048,265.176748 485.109382,265.176748 C494.961716,265.176748 502.976683,273.197342 502.976683,283.056594 C502.976683,292.91659 494.961716,300.937929 485.109382,300.937929 C475.257048,300.937929 467.241337,292.91659 467.241337,283.056594 L467.241337,283.056594 Z M1022.58656,301.167854 L953.751832,301.179015 L953.751832,301.16711 L804.238013,301.167854 L735.403286,301.179015 L735.403286,301.16711 L663.580141,301.065169 L663.580141,301.054752 L625.986608,301.054752 C607.702906,301.054752 592.828484,315.939618 592.828484,334.235413 L593.090965,367.37887 L593.090965,412.055791 L593.087991,412.055791 L593.087991,429.012216 C593.087991,433.872641 593.826358,438.384086 595.250299,442.478838 L586.775061,442.478838 L586.775061,442.478094 L547.361263,442.478094 L547.361263,442.499673 L508.653858,442.249657 C503.178935,442.249657 496.857826,438.142256 496.857826,433.092086 L496.857826,395.471413 L496.770084,395.471413 L496.770084,336.347897 L496.760418,336.347897 L496.993156,318.000015 C507.786853,314.313771 516.343884,305.751476 520.026798,294.9502 L552.613115,294.9502 L552.613115,271.164476 L520.026798,271.164476 C516.343884,260.3632 507.786853,251.800161 496.993156,248.114661 L496.993156,215.505464 L497.017694,215.505464 L497.017694,198.548295 C497.017694,193.68787 496.278583,189.177169 494.855385,185.081673 L503.32988,185.081673 L503.32988,185.040748 L540.840133,185.351035 C559.123834,185.351035 573.998257,170.466169 573.998257,152.170374 L573.998257,115.91437 L549.992022,115.91437 L549.992022,152.170374 C549.992022,157.219799 545.886015,161.327944 540.840133,161.327944 L503.32988,161.327944 L503.32988,161.296693 L428.818721,161.296693 L378.70789,161.296693 L378.70789,142.171232 L378.545048,142.171232 L378.545048,110.04272 C378.545048,91.8124051 363.724163,76.9818579 345.506639,76.9818579 L321.143489,76.9818579 L321.143489,76.9840902 L296.781083,76.9840902 C291.669023,76.9840902 287.510223,72.8223697 287.510223,67.7074642 L287.510223,44.9106413 L287.602426,33.2194287 C287.602426,14.9236335 272.728004,0.0380232283 254.444302,0.0380232283 L216.850769,0.0380232283 L216.850769,0.0491846457 L145.027624,0.151125591 L145.027624,0.163031102 L76.1921531,0.151869685 L-0.000223071719,0.151125591 L-0.000223071719,23.93685 L76.4085327,23.9361059 L145.027624,23.9204799 L145.027624,23.93685 L216.850769,24.0402791 L216.850769,24.0618579 L254.444302,24.0618579 C259.490184,24.0618579 263.596191,28.1700035 263.596191,33.2194287 L263.596191,69.4754327 L263.791007,69.4769209 C264.713037,86.8872437 279.156187,100.76907 296.781083,100.76907 L321.143489,100.76907 L321.143489,100.767582 L345.506639,100.767582 C350.617212,100.767582 354.776012,104.927815 354.776012,110.04272 L354.776012,144.056767 L354.938855,144.056767 L354.938855,201.345346 L354.921009,201.345346 L354.921009,235.359393 C354.921009,240.474299 350.762209,244.635275 345.651636,244.635275 L321.287742,244.635275 L321.287742,244.633043 L296.92608,244.633043 C279.301184,244.633043 264.858033,258.515614 263.936004,275.926681 L263.741188,275.927425 L263.741188,312.183429 C263.741188,317.232854 259.635181,321.341 254.589299,321.341 L216.995765,321.341 L216.995765,321.362578 L145.172621,321.466007 L145.172621,321.483122 L76.5535293,321.466752 L0.144773545,321.466007 L0.144773545,345.251732 L76.3371497,345.250988 L145.172621,345.239082 L145.172621,345.251732 L216.995765,345.353673 L216.995765,345.36409 L254.589299,345.36409 C272.873,345.36409 287.747422,330.47848 287.747422,312.183429 L287.655219,300.492216 L287.655219,277.695393 C287.655219,272.580488 291.81402,268.418767 296.92608,268.418767 L321.287742,268.418767 L321.287742,268.421744 L345.651636,268.421744 C363.869159,268.421744 378.690044,253.589708 378.690044,235.359393 L378.690044,204.208622 L378.70789,204.208622 L378.70789,185.083161 L428.818721,185.083161 L428.818721,185.081673 L459.585516,185.081673 C460.13799,185.112181 464.047694,185.394193 467.558843,187.332559 C470.208935,188.796193 473.249402,191.393082 473.249402,198.548295 L473.249402,215.505464 L473.224121,215.505464 L473.224121,248.114661 C462.431167,251.800161 453.87488,260.3632 450.191222,271.164476 L417.605649,271.164476 L417.605649,294.9502 L450.191222,294.9502 C453.87488,305.751476 462.431167,314.313771 473.224121,318.000015 L473.224121,336.347897 L473.001792,336.347897 L473.001792,395.471413 L472.924461,395.471413 L472.924461,433.092086 C472.924461,451.38937 488.815347,466.273492 508.653858,466.273492 L547.967274,466.273492 L547.967274,466.263819 L586.775061,466.263819 L586.775061,466.264563 L617.5426,466.264563 C618.095074,466.29507 622.004034,466.576338 625.51667,468.515448 C628.165275,469.978338 631.205742,472.574484 631.205742,479.731185 L631.205742,496.68761 L630.975979,496.68761 L630.975979,532.94287 C630.975979,537.992295 626.869972,542.101185 621.82409,542.101185 L584.229813,542.101185 L584.229813,566.124275 L621.82409,566.124275 C640.107791,566.124275 654.982213,551.238665 654.982213,532.94287 L654.982213,496.68761 L654.975521,496.68761 L654.975521,479.731185 C654.975521,474.870759 654.237154,470.359315 652.813213,466.264563 L661.287707,466.264563 L661.287707,466.231822 L685.342274,466.231822 L685.342274,490.303279 L685.342274,566.656303 L709.111309,566.656303 L709.111309,490.303279 L709.110566,490.303279 L709.110566,466.231822 L730.793137,466.231822 C755.855244,466.231822 776.245487,445.828007 776.245487,420.748303 C776.245487,395.669342 755.855244,375.265527 730.793137,375.265527 C705.731029,375.265527 685.342274,395.669342 685.342274,420.748303 L685.342274,442.435681 L709.110566,442.435681 L709.110566,420.748303 C709.110566,408.784752 718.83798,399.051252 730.793137,399.051252 C742.749781,399.051252 752.475708,408.784752 752.475708,420.748303 C752.475708,432.712598 742.749781,442.446098 730.793137,442.446098 L661.287707,442.446098 L661.287707,442.478838 L630.520169,442.478838 C629.967694,442.44833 626.058734,442.166319 622.546842,440.227208 C619.897493,438.765063 616.856282,436.168173 616.856282,429.012216 L616.856282,412.705385 L616.859257,412.705385 L616.859257,336.353106 L616.834719,336.353106 L616.834719,334.235413 C616.834719,329.185988 620.940726,325.077842 625.986608,325.077842 L663.580141,325.077842 L663.580141,325.056263 L735.403286,324.952834 L735.403286,324.936464 L804.022377,324.95209 L877.342333,325.06296 L953.751832,324.952834 L953.751832,324.936464 L1022.37092,324.95209 L1098.77894,324.952834 L1098.77894,301.16711 L1022.58656,301.167854 Z" id="Fill-1" fill="#00C1D5"></path>
                                    </g>
                                    <path d="M1091.82603,314 L1099,314 L1099,312 L1091.82603,312 L1091.82603,314 Z M1077.47734,314 L1084.65206,314 L1084.65206,312 L1077.47734,312 L1077.47734,314 Z M1063.12715,314 L1070.30187,314 L1070.30187,312 L1063.12715,312 L1063.12715,314 Z M1048.77846,314 L1055.95318,314 L1055.95318,312 L1048.77846,312 L1048.77846,314 Z M1034.42976,314 L1041.60448,314 L1041.60448,312 L1034.42976,312 L1034.42976,314 Z M1019,314 L1027.25504,314 L1027.25504,312 L1019,312 L1019,314 Z" id="Fill-4" stroke="none" fill="#FFFFFF" fill-rule="evenodd"></path>
                                    <path d="M916.476596,88.1103388 L916.476596,88.1267405 L847.755213,88.1118298 L771.232553,88.8566165 L738.475532,88.8566165 C720.230851,88.8566165 705.387128,103.715073 705.387128,121.982104 L705.387128,146.407975 L705.389362,146.407975 L705.389362,170.836084 C705.389362,175.960127 701.225106,180.129888 696.10617,180.129888 L662.449574,180.129888 L628.408723,179.893555 C610.164043,179.893555 595.321064,194.754248 595.321064,213.019787 L595.321064,237.44715 L595.323298,237.44715 L595.323298,261.874513 C595.323298,266.999301 591.159043,271.169063 586.040106,271.169063 L552,271.169063 L552,295 L586.040106,295 C604.284787,295 619.127766,280.140052 619.127766,261.874513 L619.127766,237.44715 L619.125532,237.44715 L619.125532,213.019787 C619.125532,207.894999 623.290532,203.725983 628.408723,203.725983 L662.065319,203.725983 L696.10617,203.961571 C714.350851,203.961571 729.19383,189.101623 729.19383,170.836084 L729.19383,146.407975 L729.191596,146.407975 L729.191596,121.982104 C729.191596,116.85657 733.356596,112.686063 738.475532,112.686063 L772.515638,112.47955 L847.538511,111.941276 L916.476596,111.929347 L916.476596,111.942021 L992.781809,112.050124 L993,88 L916.476596,88.1103388 Z" id="Fill-8" stroke="none" fill="#A571C9" fill-rule="evenodd"></path>
                                    <path d="M946.82528,314 L954,314 L954,312 L946.82528,312 L946.82528,314 Z M932.476588,314 L939.652056,314 L939.652056,312 L932.476588,312 L932.476588,314 Z M918.127147,314 L925.301119,314 L925.301119,312 L918.127147,312 L918.127147,314 Z M903.778455,314 L910.952427,314 L910.952427,312 L903.778455,312 L903.778455,314 Z M889.429763,314 L896.603735,314 L896.603735,312 L889.429763,312 L889.429763,314 Z M874,314 L882.254295,314 L882.254295,312 L874,312 L874,314 Z" id="Fill-15" stroke="none" fill="#FFFFFF" fill-rule="evenodd"></path>
                                    <path d="M1019.82603,314 L1027,314 L1027,312 L1019.82603,312 L1019.82603,314 Z M1005.47659,314 L1012.65131,314 L1012.65131,312 L1005.47659,312 L1005.47659,314 Z M991.127147,314 L998.301868,314 L998.301868,312 L991.127147,312 L991.127147,314 Z M976.778455,314 L983.953175,314 L983.953175,312 L976.778455,312 L976.778455,314 Z M962.429015,314 L969.603735,314 L969.603735,312 L962.429015,312 L962.429015,314 Z M947,314 L955.254295,314 L955.254295,312 L947,312 L947,314 Z" id="Fill-16" stroke="none" fill="#FFFFFF" fill-rule="evenodd"></path>
                                    <path d="M873.826028,314 L881,314 L881,312 L873.826028,312 L873.826028,314 Z M859.476588,314 L866.651308,314 L866.651308,312 L859.476588,312 L859.476588,314 Z M845.127147,314 L852.301868,314 L852.301868,312 L845.127147,312 L845.127147,314 Z M830.778455,314 L837.953175,314 L837.953175,312 L830.778455,312 L830.778455,314 Z M816.429015,314 L823.603735,314 L823.603735,312 L816.429015,312 L816.429015,314 Z M801,314 L809.254295,314 L809.254295,312 L801,312 L801,314 Z" id="Fill-17" stroke="none" fill="#FFFFFF" fill-rule="evenodd"></path>
                                    <path d="M732.33765,452.787885 L732.385014,453.97257 C731.923959,453.990362 731.457724,454 730.99889,454 L730.99889,452.815316 C731.441443,452.815316 731.892137,452.805678 732.33765,452.787885 L732.33765,452.787885 Z M745.731175,449.325019 L746.262535,450.383673 C744.112673,451.467533 741.842923,452.321573 739.515449,452.922812 L739.219426,451.775937 C741.465495,451.195456 743.656059,450.370328 745.731175,449.325019 L745.731175,449.325019 Z M756.503423,440.630413 L757.422572,441.375474 C755.908418,443.247394 754.190749,444.962147 752.319149,446.473028 L751.577613,445.550783 C753.384089,444.092538 755.042553,442.436353 756.503423,440.630413 L756.503423,440.630413 Z M762.755412,428.265361 L763.899537,428.564127 C763.292692,430.894204 762.432747,433.166456 761.344866,435.317867 L760.290287,434.781867 C761.339685,432.706075 762.170028,430.513889 762.755412,428.265361 L762.755412,428.265361 Z M764.521184,414.221142 C764.838668,416.09751 765,418.021325 765,419.93995 C765,420.432951 764.988899,420.931883 764.968178,421.424883 L763.785569,421.37373 C763.80555,420.89778 763.816651,420.4159 763.816651,419.93995 C763.816651,418.087305 763.66124,416.229471 763.356337,414.417601 L764.521184,414.221142 Z M697.755597,412.762156 L698.913043,413.011251 C698.428307,415.273124 698.182609,417.605425 698.182609,419.93995 L697,419.93995 C697,417.522393 697.254579,415.106319 697.755597,412.762156 L697.755597,412.762156 Z M759.190564,400.895295 C760.538945,402.893245 761.675671,405.038725 762.568918,407.270943 L761.471415,407.711308 C760.608511,405.557673 759.511748,403.48707 758.210731,401.558066 L759.190564,400.895295 Z M703.6679,399.678732 L704.617391,400.38376 C703.233488,402.25568 702.046438,404.275871 701.090287,406.391697 L700.012766,405.903144 C701.0037,403.7117 702.233673,401.617374 703.6679,399.678732 L703.6679,399.678732 Z M748.852729,390.949283 C750.895282,392.214775 752.812026,393.702673 754.548936,395.373686 L753.728955,396.227727 C752.053469,394.614539 750.20333,393.178536 748.231082,391.956783 L748.852729,390.949283 Z M714.427567,390.194584 L715.00481,391.228773 C712.982239,392.362304 711.071415,393.715276 709.327845,395.25507 L708.546346,394.363961 C710.352821,392.771532 712.33173,391.368889 714.427567,390.194584 L714.427567,390.194584 Z M735.339315,386.156426 C737.728955,386.461864 740.088252,387.023811 742.352821,387.827439 L741.957632,388.943919 C739.772988,388.169203 737.495837,387.62579 735.189824,387.332214 L735.339315,386.156426 Z M728.135615,386 L728.234043,387.181719 C725.915449,387.375954 723.617576,387.81706 721.40333,388.494658 L721.057724,387.361127 C723.351896,386.659064 725.733395,386.201648 728.135615,386 L728.135615,386 Z" id="Fill-102" stroke="none" fill="#FFFFFF" fill-rule="evenodd"></path>
                                    <path d="M732.33765,452.787885 L732.385014,453.97257 C731.923959,453.990362 731.457724,454 730.99889,454 L730.99889,452.815316 C731.441443,452.815316 731.892137,452.805678 732.33765,452.787885 Z M745.731175,449.325019 L746.262535,450.383673 C744.112673,451.467533 741.842923,452.321573 739.515449,452.922812 L739.219426,451.775937 C741.465495,451.195456 743.656059,450.370328 745.731175,449.325019 Z M756.503423,440.630413 L757.422572,441.375474 C755.908418,443.247394 754.190749,444.962147 752.319149,446.473028 L751.577613,445.550783 C753.384089,444.092538 755.042553,442.436353 756.503423,440.630413 Z M762.755412,428.265361 L763.899537,428.564127 C763.292692,430.894204 762.432747,433.166456 761.344866,435.317867 L760.290287,434.781867 C761.339685,432.706075 762.170028,430.513889 762.755412,428.265361 Z M764.521184,414.221142 C764.838668,416.09751 765,418.021325 765,419.93995 C765,420.432951 764.988899,420.931883 764.968178,421.424883 L763.785569,421.37373 C763.80555,420.89778 763.816651,420.4159 763.816651,419.93995 C763.816651,418.087305 763.66124,416.229471 763.356337,414.417601 L764.521184,414.221142 Z M697.755597,412.762156 L698.913043,413.011251 C698.428307,415.273124 698.182609,417.605425 698.182609,419.93995 L697,419.93995 C697,417.522393 697.254579,415.106319 697.755597,412.762156 Z M759.190564,400.895295 C760.538945,402.893245 761.675671,405.038725 762.568918,407.270943 L761.471415,407.711308 C760.608511,405.557673 759.511748,403.48707 758.210731,401.558066 L759.190564,400.895295 Z M703.6679,399.678732 L704.617391,400.38376 C703.233488,402.25568 702.046438,404.275871 701.090287,406.391697 L700.012766,405.903144 C701.0037,403.7117 702.233673,401.617374 703.6679,399.678732 Z M748.852729,390.949283 C750.895282,392.214775 752.812026,393.702673 754.548936,395.373686 L753.728955,396.227727 C752.053469,394.614539 750.20333,393.178536 748.231082,391.956783 L748.852729,390.949283 Z M714.427567,390.194584 L715.00481,391.228773 C712.982239,392.362304 711.071415,393.715276 709.327845,395.25507 L708.546346,394.363961 C710.352821,392.771532 712.33173,391.368889 714.427567,390.194584 Z M735.339315,386.156426 C737.728955,386.461864 740.088252,387.023811 742.352821,387.827439 L741.957632,388.943919 C739.772988,388.169203 737.495837,387.62579 735.189824,387.332214 L735.339315,386.156426 Z M728.135615,386 L728.234043,387.181719 C725.915449,387.375954 723.617576,387.81706 721.40333,388.494658 L721.057724,387.361127 C723.351896,386.659064 725.733395,386.201648 728.135615,386 Z" id="Stroke-103" stroke="#FFFFFF" stroke-width="0.75" fill="none"></path>
                                    <polygon id="Fill-104" stroke="none" fill="#FFFFFF" fill-rule="evenodd" points="697 470 698 470 698 465 697 465"></polygon>
                                    <polygon id="Fill-105" stroke="none" fill="#FFFFFF" fill-rule="evenodd" points="697 484 698 484 698 477 697 477"></polygon>
                                    <polygon id="Fill-106" stroke="none" fill="#FFFFFF" fill-rule="evenodd" points="697 440 698 440 698 434 697 434"></polygon>
                                    <polygon id="Stroke-107" stroke="#FFFFFF" stroke-width="0.5" fill="none" points="697 440 698 440 698 434 697 434"></polygon>
                                    <polygon id="Fill-108" stroke="none" fill="#FFFFFF" fill-rule="evenodd" points="697 427 698 427 698 420 697 420"></polygon>
                                    <polygon id="Stroke-109" stroke="#FFFFFF" stroke-width="0.5" fill="none" points="697 427 698 427 698 420 697 420"></polygon>
                                    <path d="M723.888724,454 L731,454 L731,453 L723.888724,453 L723.888724,454 Z M709.666914,454 L716.77819,454 L716.77819,453 L709.666914,453 L709.666914,454 Z M695.444362,454 L702.555638,454 L702.555638,453 L695.444362,453 L695.444362,454 Z M681.222552,454 L688.334569,454 L688.334569,453 L681.222552,453 L681.222552,454 Z M667,454 L674.111276,454 L674.111276,453 L667,453 L667,454 Z" id="Fill-110" stroke="none" fill="#FFFFFF" fill-rule="evenodd"></path>
                                    <path d="M723.888724,454 L731,454 L731,453 L723.888724,453 L723.888724,454 Z M709.666914,454 L716.77819,454 L716.77819,453 L709.666914,453 L709.666914,454 Z M695.444362,454 L702.555638,454 L702.555638,453 L695.444362,453 L695.444362,454 Z M681.222552,454 L688.334569,454 L688.334569,453 L681.222552,453 L681.222552,454 Z M667,454 L674.111276,454 L674.111276,453 L667,453 L667,454 Z" id="Stroke-111" stroke="#FFFFFF" stroke-width="0.5" fill="none"></path>
                                    <path d="M728.826095,314 L736,314 L736,312 L728.826095,312 L728.826095,314 Z M714.476789,314 L721.651442,314 L721.651442,312 L714.476789,312 L714.476789,314 Z M700.127483,314 L707.302136,314 L707.302136,312 L700.127483,312 L700.127483,314 Z M685.778925,314 L692.953578,314 L692.953578,312 L685.778925,312 L685.778925,314 Z M671.429619,314 L678.604272,314 L678.604272,312 L671.429619,312 L671.429619,314 Z M656,314 L664.254966,314 L664.254966,312 L656,312 L656,314 Z" id="Fill-125" stroke="none" fill="#FFFFFF" fill-rule="evenodd"></path>
                                    <path d="M801.826095,314 L809,314 L809,312 L801.826095,312 L801.826095,314 Z M787.476789,314 L794.651442,314 L794.651442,312 L787.476789,312 L787.476789,314 Z M773.126735,314 L780.301388,314 L780.301388,312 L773.126735,312 L773.126735,314 Z M758.778177,314 L765.95283,314 L765.95283,312 L758.778177,312 L758.778177,314 Z M744.429619,314 L751.604272,314 L751.604272,312 L744.429619,312 L744.429619,314 Z M729,314 L737.254966,314 L737.254966,312 L729,312 L729,314 Z" id="Fill-126" stroke="none" fill="#FFFFFF" fill-rule="evenodd"></path>
                                </g>
                            </g>
                        </g>
                        <g id="Group-5" transform="translate(37.000000, 190.500000) rotate(90.000000) translate(-37.000000, -190.500000) translate(-77.500000, 178.500000)">
                            <polygon id="Fill-1" fill="#00C1D5" points="3.22235654 0 3 24 80.9841572 23.8891472 80.9841572 23.8735237 151.016602 23.8884032 229 23.8891472 229 0.107132893 151.23744 0.107876872 80.9841572 0.119780526 80.9841572 0.107132893"></polygon>
                            <path d="M221.737111,13 L229,13 L229,11 L221.737111,11 L221.737111,13 Z M207.208303,13 L214.472707,13 L214.472707,11 L207.208303,11 L207.208303,13 Z M192.678737,13 L199.942383,13 L199.942383,11 L192.678737,11 L192.678737,13 Z M178.150686,13 L185.41509,13 L185.41509,11 L178.150686,11 L178.150686,13 Z M163.622635,13 L170.887039,13 L170.887039,11 L163.622635,11 L163.622635,13 Z M148,13 L156.358231,13 L156.358231,11 L148,11 L148,13 Z" id="Fill-2" fill="#FFFFFF"></path>
                            <path d="M147.736421,13 L155,13 L155,11 L147.736421,11 L147.736421,13 Z M133.207749,13 L140.472085,13 L140.472085,11 L133.207749,11 L133.207749,13 Z M118.679076,13 L125.943413,13 L125.943413,11 L118.679076,11 L118.679076,13 Z M104.151161,13 L111.415498,13 L111.415498,11 L104.151161,11 L104.151161,13 Z M89.6224891,13 L96.8868253,13 L96.8868253,11 L89.6224891,11 L89.6224891,13 Z M74,13 L82.3581528,13 L82.3581528,11 L74,11 L74,13 Z" id="Fill-4" fill="#FFFFFF"></path>
                        </g>
                    </g>
                </g>
            </g>
        </g>
    </g>
</svg>