<?xml version="1.0" encoding="UTF-8"?>
<svg width="88px" height="86px" viewBox="0 0 88 86" version="1.1" xmlns="http://www.w3.org/2000/svg" xmlns:xlink="http://www.w3.org/1999/xlink">
    <!-- Generator: Sketch 53.2 (72643) - https://sketchapp.com -->
    <title>secure-ingress-icon</title>
    <desc>Created with Sketch.</desc>
    <defs>
        <polygon id="path-1" points="0 86 88 86 88 0.846129032 0 0.846129032"></polygon>
    </defs>
    <g id="Designs" stroke="none" stroke-width="1" fill="none" fill-rule="evenodd">
        <g id="Home-Page--Contour" transform="translate(-998.000000, -553.000000)">
            <g id="Callout-3" transform="translate(890.000000, 512.000000)">
                <g id="secure-ingress-icon" transform="translate(108.000000, 41.000000)">
                    <polygon id="Fill-1" fill="#0091DA" points="0 16 2 16 2 14 0 14"></polygon>
                    <polygon id="Fill-2" fill="#0091DA" points="0 12 2 12 2 10 0 10"></polygon>
                    <polygon id="Fill-3" fill="#0091DA" points="0 7 2 7 2 5 0 5"></polygon>
                    <polygon id="Fill-4" fill="#0091DA" points="0 21 2 21 2 19 0 19"></polygon>
                    <polygon id="Fill-5" fill="#0091DA" points="0 25 2 25 2 23 0 23"></polygon>
                    <polygon id="Fill-6" fill="#0091DA" points="0 30 2 30 2 28 0 28"></polygon>
                    <polygon id="Fill-7" fill="#0091DA" points="0 3 2 3 2 1 0 1"></polygon>
                    <polygon id="Fill-8" fill="#0091DA" points="14 3 16 3 16 1 14 1"></polygon>
                    <polygon id="Fill-9" fill="#0091DA" points="18 56 20 56 20 54 18 54"></polygon>
                    <polygon id="Fill-10" fill="#0091DA" points="14 56 16 56 16 54 14 54"></polygon>
                    <polygon id="Fill-11" fill="#0091DA" points="9 56 11 56 11 54 9 54"></polygon>
                    <polygon id="Fill-12" fill="#0091DA" points="5 3 7 3 7 1 5 1"></polygon>
                    <polygon id="Fill-13" fill="#0091DA" points="9 3 11 3 11 1 9 1"></polygon>
                    <polygon id="Fill-14" fill="#0091DA" points="5 56 7 56 7 54 5 54"></polygon>
                    <polygon id="Fill-15" fill="#0091DA" points="41 3 43 3 43 1 41 1"></polygon>
                    <polygon id="Fill-16" fill="#0091DA" points="23 56 25 56 25 54 23 54"></polygon>
                    <polygon id="Fill-17" fill="#0091DA" points="0 34 2 34 2 32 0 32"></polygon>
                    <polygon id="Fill-18" fill="#0091DA" points="45 3 47 3 47 1 45 1"></polygon>
                    <polygon id="Fill-19" fill="#0091DA" points="54 3 56 3 56 1 54 1"></polygon>
                    <polygon id="Fill-20" fill="#0091DA" points="77 3 79 3 79 1 77 1"></polygon>
                    <polygon id="Fill-21" fill="#0091DA" points="72 3 74 3 74 1 72 1"></polygon>
                    <polygon id="Fill-22" fill="#0091DA" points="50 3 52 3 52 1 50 1"></polygon>
                    <polygon id="Fill-23" fill="#0091DA" points="0 52 2 52 2 50 0 50"></polygon>
                    <polygon id="Fill-24" fill="#0091DA" points="0 47 2 47 2 45 0 45"></polygon>
                    <polygon id="Fill-25" fill="#0091DA" points="0 38 2 38 2 36 0 36"></polygon>
                    <polygon id="Fill-26" fill="#0091DA" points="36 3 38 3 38 1 36 1"></polygon>
                    <polygon id="Fill-27" fill="#0091DA" points="18 3 20 3 20 1 18 1"></polygon>
                    <polygon id="Fill-28" fill="#0091DA" points="0 56 2 56 2 54 0 54"></polygon>
                    <polygon id="Fill-29" fill="#0091DA" points="0 43 2 43 2 41 0 41"></polygon>
                    <polygon id="Fill-30" fill="#0091DA" points="86 43 88 43 88 41 86 41"></polygon>
                    <polygon id="Fill-31" fill="#0091DA" points="86 38 88 38 88 36 86 36"></polygon>
                    <polygon id="Fill-32" fill="#0091DA" points="23 3 25 3 25 1 23 1"></polygon>
                    <polygon id="Fill-33" fill="#0091DA" points="86 30 88 30 88 28 86 28"></polygon>
                    <polygon id="Fill-34" fill="#0091DA" points="86 47 88 47 88 45 86 45"></polygon>
                    <polygon id="Fill-35" fill="#0091DA" points="86 56 88 56 88 54 86 54"></polygon>
                    <polygon id="Fill-36" fill="#0091DA" points="86 52 88 52 88 50 86 50"></polygon>
                    <polygon id="Fill-37" fill="#0091DA" points="81 3 83 3 83 1 81 1"></polygon>
                    <polygon id="Fill-38" fill="#0091DA" points="86 7 88 7 88 5 86 5"></polygon>
                    <polygon id="Fill-39" fill="#0091DA" points="86 25 88 25 88 23 86 23"></polygon>
                    <polygon id="Fill-40" fill="#0091DA" points="86 3 88 3 88 1 86 1"></polygon>
                    <polygon id="Fill-41" fill="#0091DA" points="86 12 88 12 88 10 86 10"></polygon>
                    <polygon id="Fill-42" fill="#0091DA" points="86 16 88 16 88 14 86 14"></polygon>
                    <polygon id="Fill-43" fill="#0091DA" points="86 21 88 21 88 19 86 19"></polygon>
                    <polygon id="Fill-44" fill="#0091DA" points="86 34 88 34 88 32 86 32"></polygon>
                    <polygon id="Fill-45" fill="#0091DA" points="81 56 83 56 83 54 81 54"></polygon>
                    <g id="Group-66">
                        <path d="M55.0895747,55.7619376 L55.0895747,56.3297226 L56.3929011,56.3297226 L56.3929011,54.0178946 L54.9821221,54.0178946 C55.0451116,54.5893785 55.0895747,55.1691849 55.0895747,55.7619376" id="Fill-46" fill="#0091DA"></path>
                        <mask id="mask-2" fill="white">
                            <use xlink:href="#path-1"></use>
                        </mask>
                        <g id="Clip-49"></g>
                        <polygon id="Fill-48" fill="#0091DA" mask="url(#mask-2)" points="58.6459789 56.33 60.8997053 56.33 60.8997053 54.018172 58.6459789 54.018172"></polygon>
                        <polygon id="Fill-50" fill="#0091DA" mask="url(#mask-2)" points="27.1012211 56.33 29.3540211 56.33 29.3540211 54.018172 27.1012211 54.018172"></polygon>
                        <polygon id="Fill-51" fill="#0091DA" mask="url(#mask-2)" points="31.6068211 3.15795699 33.8605474 3.15795699 33.8605474 0.846129032 31.6068211 0.846129032"></polygon>
                        <polygon id="Fill-52" fill="#0091DA" mask="url(#mask-2)" points="58.6459789 3.15795699 60.8997053 3.15795699 60.8997053 0.846129032 58.6459789 0.846129032"></polygon>
                        <polygon id="Fill-53" fill="#0091DA" mask="url(#mask-2)" points="27.1012211 3.15795699 29.3549474 3.15795699 29.3549474 0.846129032 27.1012211 0.846129032"></polygon>
                        <path d="M32.9104253,55.7619376 C32.9104253,55.1691849 32.9548884,54.5893785 33.0188042,54.0178946 L31.6080253,54.0178946 L31.6080253,56.3297226 L32.9104253,56.3297226 L32.9104253,55.7619376 Z" id="Fill-54" fill="#0091DA" mask="url(#mask-2)"></path>
                        <polygon id="Fill-55" fill="#0091DA" mask="url(#mask-2)" points="72.1655579 56.33 74.4192842 56.33 74.4192842 54.018172 72.1655579 54.018172"></polygon>
                        <polygon id="Fill-56" fill="#0091DA" mask="url(#mask-2)" points="76.6720842 56.33 78.9258105 56.33 78.9258105 54.018172 76.6720842 54.018172"></polygon>
                        <polygon id="Fill-57" fill="#0091DA" mask="url(#mask-2)" points="63.1525053 56.33 65.4062316 56.33 65.4062316 54.018172 63.1525053 54.018172"></polygon>
                        <polygon id="Fill-58" fill="#0091DA" mask="url(#mask-2)" points="67.6590316 3.15795699 69.9127579 3.15795699 69.9127579 0.846129032 67.6590316 0.846129032"></polygon>
                        <polygon id="Fill-59" fill="#0091DA" mask="url(#mask-2)" points="63.1525053 3.15795699 65.4062316 3.15795699 65.4062316 0.846129032 63.1525053 0.846129032"></polygon>
                        <polygon id="Fill-60" fill="#0091DA" mask="url(#mask-2)" points="67.6590316 56.33 69.9118316 56.33 69.9118316 54.018172 67.6590316 54.018172"></polygon>
                        <path d="M69.2579453,18.4691935 L69.2421979,18.4691935 C65.0728505,18.4673441 62.7672505,17.4640108 62.3365137,16.9591075 C62.7672505,16.4560538 65.0700716,15.4573441 69.2301558,15.4573441 L69.2421979,15.4573441 C73.4115453,15.4601183 75.7180716,16.4634516 76.1488084,16.9674301 C75.7180716,17.4704839 73.4161768,18.4691935 69.2579453,18.4691935 M78.4979453,23.7540323 L78.4608926,23.7521828 L78.4636716,17.366914 C78.4896084,17.2282043 78.5053558,17.0941183 78.5053558,16.9683548 C78.5062821,14.3310215 73.8543242,13.1482903 69.2440505,13.1455161 L69.2310821,13.1455161 C66.9514189,13.1455161 64.7921768,13.4414301 63.1507453,13.9796237 C60.5301979,14.8386989 59.9799663,16.0741398 59.97904,16.9581828 C59.9781137,19.5955161 64.6300716,20.779172 69.2403453,20.7810215 L69.2570189,20.7810215 C71.5357558,20.7810215 73.6940716,20.4851075 75.3345768,19.946914 C75.6337768,19.8488925 75.8987032,19.7443978 76.1469558,19.6380538 L76.1451032,23.7281398 C75.7819874,24.2210215 73.4921347,25.254871 69.2496084,25.254871 L69.2375663,25.254871 C64.8301558,25.2520968 62.5051032,24.1313226 62.2920505,23.7447849 L62.2929768,21.5633441 L59.9771874,21.5624194 L59.9762611,23.7438602 C59.9762611,24.628828 60.5255663,25.8642688 63.1442611,26.7261183 C64.7884716,27.267086 66.9514189,27.5657742 69.2357137,27.5666989 L69.2486821,27.5666989 C71.5283453,27.5666989 73.6866611,27.2707849 75.3271663,26.7325914 C75.6282189,26.6336452 75.8949979,26.5291505 76.1441768,26.4218817 L76.1423242,30.1901613 C75.7792084,30.6821183 73.4893558,31.7159677 69.2477558,31.7159677 L69.2347874,31.7159677 C64.8273768,31.7131935 62.5023242,30.5914946 62.2901979,30.2058817 L62.2911242,28.0244409 L59.9753347,28.0235161 L59.9744084,30.204957 C59.9734821,32.8413656 64.6235874,34.0250215 69.2338611,34.0277957 L69.2468295,34.0277957 C71.8006821,34.0277957 74.3619453,33.6643763 76.1413979,32.8922258 L76.1395453,37.0498172 C75.7764295,37.5417742 73.4875032,38.5756237 69.2477558,38.5756237 L69.2320084,38.5756237 C64.8245979,38.5728495 62.5004716,37.4511505 62.2874189,37.0655376 L62.2883453,34.8840968 L59.9725558,34.883172 L59.9716295,37.0646129 C59.9707032,39.7019462 64.6217347,40.8846774 69.2301558,40.8874516 L69.2468295,40.8874516 C71.52464,40.8874516 73.6820295,40.5906129 75.3225347,40.0533441 C77.9421558,39.1942688 78.4923874,37.958828 78.4933137,37.0747849 L78.4553347,37.0729355 L78.4581137,30.5526559 C78.4757137,30.4426129 78.4960926,30.3316452 78.4960926,30.215129 L78.4581137,30.2142043 L78.4608926,24.133172 C78.4840505,24.0018602 78.4979453,23.8742473 78.4979453,23.7540323" id="Fill-61" fill="#0091DA" mask="url(#mask-2)"></path>
                        <path d="M43.8652211,18.4691935 L43.8494737,18.4691935 C39.6801263,18.4673441 37.3745263,17.4640108 36.9437895,16.9591075 C37.3745263,16.4560538 39.6773474,15.4573441 43.8374316,15.4573441 L43.8494737,15.4573441 C48.0188211,15.4601183 50.3253474,16.4634516 50.7560842,16.9674301 C50.3253474,17.4704839 48.0234526,18.4691935 43.8652211,18.4691935 M53.1052211,23.7540323 L53.0672421,23.7521828 L53.0700211,17.3687634 C53.0968842,17.2300538 53.1126316,17.095043 53.1126316,16.9683548 C53.1135579,14.3310215 48.4616,13.1482903 43.8513263,13.1455161 L43.8383579,13.1455161 C41.5586947,13.1455161 39.3994526,13.4414301 37.7580211,13.9796237 C35.1374737,14.8386989 34.5872421,16.0741398 34.5863158,16.9581828 C34.5853895,19.5955161 39.2373474,20.779172 43.8476211,20.7810215 L43.8642947,20.7810215 C46.1430316,20.7810215 48.3013474,20.4851075 49.9418526,19.946914 C50.2410526,19.8488925 50.5059789,19.7443978 50.7533053,19.6380538 L50.7514526,23.7281398 C50.3901895,24.2210215 48.1003368,25.254871 43.8568842,25.254871 L43.8448421,25.254871 C39.4365053,25.2520968 37.1114526,24.1303978 36.8993263,23.7457097 L36.9002526,21.5642688 L34.5844632,21.5624194 L34.5835368,23.7438602 C34.5826105,26.3811935 39.2336421,27.5639247 43.8429895,27.5666989 L43.8559579,27.5666989 C46.1356211,27.5666989 48.2939368,27.2707849 49.9344421,26.7325914 C50.2354947,26.6336452 50.5022737,26.5291505 50.7505263,26.4218817 L50.7496,30.1892366 C50.3864842,30.6821183 48.0966316,31.7159677 43.8541053,31.7159677 L43.8420632,31.7159677 C39.4346526,31.7131935 37.1096,30.5914946 36.8974737,30.2058817 L36.8984,28.0244409 L34.5826105,28.0235161 L34.5816842,30.204957 C34.5807579,32.8413656 39.2308632,34.0250215 43.8402105,34.0277957 L43.8531789,34.0277957 C46.1328421,34.0277957 48.2911579,33.7318817 49.9316632,33.1936882 C50.2327158,33.0947419 50.4994947,32.9902473 50.7486737,32.8820538 L50.7468211,37.0498172 C50.3837053,37.5417742 48.0947789,38.5756237 43.8550316,38.5756237 L43.8392842,38.5756237 C39.4318737,38.5728495 37.1068211,37.4511505 36.8946947,37.0655376 L36.8956211,34.8840968 L34.5798316,34.883172 L34.5789053,37.0646129 C34.5779789,39.7019462 39.2290105,40.8846774 43.8374316,40.8874516 L43.8541053,40.8874516 C48.4578947,40.8874516 53.0987368,39.7093441 53.1005895,37.0747849 L53.0626105,37.0738602 L53.0653895,30.5942688 C53.0894737,30.462957 53.1024421,30.3353441 53.1024421,30.215129 L53.0653895,30.2132796 L53.0672421,24.133172 C53.0913263,24.0018602 53.1052211,23.8742473 53.1052211,23.7540323" id="Fill-62" fill="#0091DA" mask="url(#mask-2)"></path>
                        <path d="M18.4720337,18.4691935 L18.4562863,18.4691935 C14.2878653,18.4673441 11.9813389,17.4640108 11.5506021,16.9591075 C11.9813389,16.4560538 14.28416,15.4573441 18.4442442,15.4573441 L18.4572126,15.4573441 C22.62656,15.4601183 24.9330863,16.4634516 25.3628968,16.9674301 C24.9330863,17.4704839 22.6311916,18.4691935 18.4720337,18.4691935 M27.7120337,23.7540323 L27.6749811,23.7521828 L27.67776,17.366914 C27.7036968,17.229129 27.7194442,17.095043 27.7194442,16.9683548 C27.7203705,16.0833871 27.1710653,14.8479462 24.5514442,13.9860968 C22.9072337,13.445129 20.74336,13.1464409 18.4581389,13.1455161 L18.4451705,13.1455161 C13.8395284,13.1455161 9.19498105,14.3236237 9.19312842,16.9581828 C9.19220211,19.5955161 13.84416,20.779172 18.4544337,20.7810215 L18.4711074,20.7810215 C20.7498442,20.7810215 22.90816,20.4851075 24.5486653,19.946914 C24.8478653,19.8488925 25.1127916,19.7443978 25.3610442,19.6380538 L25.3591916,23.7281398 C24.9970021,24.2210215 22.7071495,25.254871 18.4636968,25.254871 L18.4516547,25.254871 C14.0442442,25.2520968 11.7191916,24.1303978 11.5061389,23.7457097 L11.5079916,21.5642688 L9.19220211,21.5624194 L9.19034947,23.7438602 C9.18942316,26.3811935 13.8404547,27.5639247 18.4498021,27.5666989 L18.4627705,27.5666989 C20.7424337,27.5666989 22.9007495,27.2707849 24.5412547,26.7325914 C24.8423074,26.6336452 25.1100126,26.5291505 25.3582653,26.4218817 L25.3564126,30.1892366 C24.9942232,30.6821183 22.7034442,31.7159677 18.4618442,31.7159677 L18.4488758,31.7159677 C14.0414653,31.7131935 11.7173389,30.5914946 11.5042863,30.2058817 L11.5052126,28.0244409 L9.18942316,28.0235161 L9.18849684,30.2040323 C9.18849684,31.089 9.73687579,32.3244409 12.3555705,33.1872151 C13.9997811,33.7272581 16.1636547,34.026871 18.4479495,34.0277957 L18.4609179,34.0277957 C20.7396547,34.0277957 22.8979705,33.7318817 24.5394021,33.1936882 C24.8404547,33.0947419 25.1072337,32.9902473 25.3554863,32.8820538 L25.3536337,37.0488925 C24.9923705,37.5417742 22.7025179,38.5756237 18.4618442,38.5756237 L18.4460968,38.5756237 C14.0386863,38.5728495 11.71456,37.4511505 11.5015074,37.0655376 L11.50336,34.8840968 L9.18757053,34.883172 L9.18571789,37.0646129 C9.18479158,39.7019462 13.8358232,40.8846774 18.4442442,40.8874516 L18.4609179,40.8874516 C20.7387284,40.8874516 22.8961179,40.5906129 24.5366232,40.0533441 C27.1562442,39.1942688 27.7064758,37.958828 27.7074021,37.0747849 L27.6694232,37.0729355 L27.6722021,30.5942688 C27.6962863,30.462957 27.7101811,30.3353441 27.7101811,30.215129 L27.6722021,30.2132796 L27.6749811,24.133172 C27.6990653,24.0018602 27.7120337,23.8742473 27.7120337,23.7540323" id="Fill-63" fill="#0091DA" mask="url(#mask-2)"></path>
                        <path d="M44,83.6880796 C37.8205474,83.6880796 32.7925053,78.6695634 32.7925053,72.499757 C32.7925053,66.3308753 37.8205474,61.3123591 44,61.3123591 C50.1794526,61.3123591 55.2074947,66.3308753 55.2074947,72.499757 C55.2074947,78.6695634 50.1794526,83.6880796 44,83.6880796 L44,83.6880796 Z M38.3967158,53.5612624 C38.3967158,50.6881226 40.6328421,48.3504022 43.3821474,48.3504022 L44.6178526,48.3504022 C47.3671579,48.3504022 49.6032842,50.6881226 49.6032842,53.5612624 L49.6032842,60.2248753 C47.8951579,59.4462516 46.0017684,59.0005312 44,59.0005312 C41.9982316,59.0005312 40.1048421,59.4462516 38.3967158,60.2248753 L38.3967158,53.5612624 Z M51.3966316,61.2060151 L51.9190737,61.2060151 L51.9190737,53.5612624 C51.9190737,49.413843 48.6445474,46.0385742 44.6178526,46.0385742 L43.3821474,46.0385742 C39.3554526,46.0385742 36.0809263,49.413843 36.0809263,53.5612624 L36.0809263,61.2060151 L36.6033684,61.2060151 C32.9166316,63.617714 30.4767158,67.7716065 30.4767158,72.499757 C30.4767158,79.9558645 36.5311158,85.9999075 44,85.9999075 C51.4688842,85.9999075 57.5232842,79.9558645 57.5232842,72.499757 C57.5232842,67.7716065 55.0833684,63.617714 51.3966316,61.2060151 L51.3966316,61.2060151 Z" id="Fill-64" fill="#0091DA" mask="url(#mask-2)"></path>
                        <path d="M44,68.9830968 C42.7726316,68.9830968 41.7777684,69.9762581 41.7777684,71.2015269 C41.7777684,72.0226882 42.2251789,72.7375054 42.8884211,73.1212688 L42.8884211,75.4256989 C42.8884211,75.7512043 43.1552,76.0175269 43.4812632,76.0175269 L44.5187368,76.0175269 C44.8448,76.0175269 45.1115789,75.7512043 45.1115789,75.4256989 L45.1115789,73.1212688 C45.7748211,72.7375054 46.2222316,72.0226882 46.2222316,71.2015269 C46.2222316,69.9762581 45.2273684,68.9830968 44,68.9830968" id="Fill-65" fill="#0091DA" mask="url(#mask-2)"></path>
                    </g>
                </g>
            </g>
        </g>
    </g>
</svg>